<svg width="18" height="18" viewBox="0 0 18 18" fill="none" xmlns="http://www.w3.org/2000/svg">
<path d="M14.9625 15.75C15.0875 15.75 15.2187 15.747 15.3562 15.741C15.4937 15.7345 15.625 15.725 15.75 15.7125V11.325L12 10.575L9.825 12.75C8.875 12.175 8.003 11.4937 7.209 10.7062C6.4155 9.91875 5.75625 9.075 5.23125 8.175L7.36875 6.01875L6.675 2.25H2.2875C2.2625 2.375 2.25 2.50625 2.25 2.64375V3.0375C2.25 4.65 2.6095 6.22175 3.3285 7.75275C4.047 9.28425 4.997 10.6437 6.1785 11.8312C7.3595 13.0188 8.7155 13.9688 10.2465 14.6813C11.778 15.3938 13.35 15.75 14.9625 15.75Z" fill="white"/>
</svg>
