<svg width="42" height="35" viewBox="0 0 42 35" fill="none" xmlns="http://www.w3.org/2000/svg">
<mask id="mask0_1_145" style="mask-type:alpha" maskUnits="userSpaceOnUse" x="0" y="-1" width="42" height="37">
<path d="M41.2212 34.9095H6.38933L0.754761 32.8606L16.1218 0.0776367H29.4398V12.3712H32.5132L36.6111 12.8835V19.5425L37.1233 22.1037H41.2212V34.9095Z" fill="#D9D9D9" stroke="black" stroke-width="0.4"/>
</mask>
<g mask="url(#mask0_1_145)">
<mask id="mask1_1_145" style="mask-type:luminance" maskUnits="userSpaceOnUse" x="5" y="1" width="124" height="32">
<path d="M5.35413 1.61432H128.29V32.3483H5.35413V1.61432Z" fill="white" stroke="white" stroke-width="0.4"/>
</mask>
<g mask="url(#mask1_1_145)">
<path fill-rule="evenodd" clip-rule="evenodd" d="M21.9711 2.6736C20.7787 2.80063 19.7542 3.21349 18.9162 3.90603C18.1581 4.53198 17.6848 5.28291 17.4758 6.18854C17.3856 6.58091 17.3877 7.27755 17.4799 7.68221C17.8774 9.43405 19.4366 10.7443 21.5798 11.1285C21.9383 11.192 22.0848 11.1951 25.5189 11.2074L29.0861 11.2197V10.2844H25.8006L26.1018 10.058C26.8548 9.48937 27.4285 8.64419 27.6528 7.77032C27.7727 7.30521 27.7727 6.55018 27.6528 6.08507C27.4315 5.22349 26.9716 4.51968 26.2247 3.89988L25.8282 3.57H29.0861V2.63876L25.6541 2.64286C23.768 2.64491 22.1094 2.65925 21.9711 2.6736ZM30.1843 6.93538L30.1945 11.2002L34.0527 11.2084L37.9118 11.2166V11.8272H39.7395V9.73832H37.6393V2.67052H35.657V9.73934H32.1963V2.67052H30.174L30.1843 6.93538ZM41.0221 6.94357V11.2166L43.8312 11.2084L46.6403 11.2002L46.6505 10.4052L46.6608 9.61026H42.9655V7.36156H46.6608L46.6505 6.58296L46.6403 5.80334L44.8024 5.79515L42.9655 5.78695V4.24513H46.6597V2.6695H41.0221V6.94357ZM48.4577 6.93538L48.4679 11.2002H50.4503L50.4605 9.32853L50.4708 7.45786H53.9294V11.2176L54.9118 11.2095L55.8933 11.2002L55.9035 6.93538L55.9138 2.67052H53.9283V5.88325H50.4677V2.67052H48.4485L48.4587 6.93538H48.4577ZM57.2435 3.46551L57.2538 4.26152L58.1573 4.26971L59.0619 4.27791L59.0722 7.73958L59.0814 11.2002L60.0823 11.2095L61.0832 11.2176V4.27689H62.9498V2.67052H57.2333L57.2435 3.46551ZM64.2816 6.9323L64.2918 11.2002H66.2342L66.2445 9.39307L66.2547 7.58591H66.6174C67.1347 7.58591 67.94 7.52854 68.236 7.47015C68.3754 7.44249 68.6704 7.34721 68.8917 7.26013C69.575 6.98763 70.0739 6.51739 70.2983 5.9314C70.4151 5.62816 70.4489 4.88439 70.3618 4.54427C70.2465 4.08403 69.9856 3.67333 69.618 3.37331C69.3395 3.14013 69.0121 2.97244 68.6602 2.88259C68.0629 2.71765 67.7689 2.69511 65.9525 2.67974L64.2703 2.66438L64.2806 6.9323H64.2816ZM75.477 2.75863C75.4555 2.8078 74.5611 4.71843 73.4895 7.00402C72.8336 8.39571 72.1848 9.79071 71.543 11.189C71.543 11.2043 71.9958 11.2166 72.5501 11.2166H73.5571L73.7569 10.7904L74.1718 9.90736L74.3869 9.44942L76.5127 9.45761L78.6375 9.46581L78.91 10.06L79.3116 10.9359L79.4406 11.2166H81.465L81.4414 11.1449C81.4281 11.1039 80.5378 9.18511 79.4632 6.87903L77.5075 2.68691L76.5117 2.67872L75.5159 2.6695L75.477 2.75863ZM83.8571 6.88723L81.8615 11.1603C81.8379 11.2146 81.8963 11.2166 82.8798 11.2095L83.9237 11.2002L85.3682 8.08995C85.8501 7.0474 86.3364 6.00687 86.827 4.9684C86.8352 4.96225 87.4438 6.27562 88.1804 7.88608L89.6136 11.0158L89.7058 11.2166H90.7569C91.5806 11.2166 91.8018 11.2074 91.7875 11.1756L87.9037 2.83956L87.8269 2.67052H85.8261L83.8571 6.88723ZM92.9749 6.93538L92.9841 11.2002L94.3446 11.2105C96.4673 11.2258 97.1885 11.1634 97.8052 10.9134C98.509 10.6265 99.1063 10.0159 99.3276 9.35312C99.4259 9.05807 99.428 8.17396 99.3307 7.87584C99.1905 7.50514 98.9761 7.16698 98.7006 6.8821C97.9937 6.19981 97.1905 5.94369 95.5985 5.89349L94.947 5.87301V2.67052H92.9646L92.9749 6.93538ZM101.139 6.93538L101.149 11.2002H103.131L103.142 9.32853L103.152 7.45786H106.612V11.2176L107.593 11.2095L108.574 11.2002L108.585 6.93538L108.594 2.67052H106.612V5.88325H103.151V2.67052H101.129L101.139 6.93538ZM114.058 2.77604C114.022 2.84775 110.379 10.6214 110.121 11.1756C110.105 11.2095 110.296 11.2166 111.126 11.2095L112.151 11.2002L112.56 10.3253L112.968 9.45044H115.092C117.081 9.45044 117.219 9.45352 117.243 9.50576L117.62 10.3325C117.814 10.7566 117.988 11.1295 118.008 11.1603C118.042 11.2115 118.133 11.2166 119.058 11.2166C119.854 11.2166 120.068 11.2074 120.053 11.1756C119.995 11.0578 116.162 2.83341 116.129 2.75965L116.09 2.67052H114.111L114.058 2.77604ZM124.323 2.70638C123.309 2.75248 122.679 2.9502 122.14 3.39277C121.782 3.68782 121.553 4.01565 121.417 4.42851C121.304 4.77068 121.292 5.63226 121.396 5.94779C121.625 6.6516 122.229 7.17203 123.106 7.42405C123.236 7.46093 123.305 7.49883 123.297 7.52649C123.291 7.55006 122.798 8.34402 122.204 9.28858C121.609 10.2342 121.093 11.0548 121.059 11.1121L120.994 11.2166H123.135L124.185 9.48015L125.236 7.74368L125.478 7.75393L125.72 7.76315L125.73 9.4904L125.74 11.2176L126.702 11.2095L127.664 11.2002L127.675 6.93538L127.684 2.67052L126.294 2.67564C125.529 2.67872 124.642 2.69204 124.323 2.70638ZM23.0407 3.60381C24.5538 3.74519 25.8498 4.58423 26.3681 5.75724C26.5628 6.19776 26.6099 6.43134 26.6089 6.94357C26.6089 7.33697 26.5925 7.45683 26.5095 7.71602C26.1919 8.70975 25.4574 9.46888 24.3776 9.9176C23.9053 10.1122 23.4453 10.2178 22.9044 10.2516C22.1023 10.3018 21.5029 10.2075 20.7848 9.91658C19.9755 9.58977 19.3505 9.07446 18.9561 8.40549C18.844 8.21724 18.7481 8.01983 18.6693 7.81539C18.1109 6.12502 19.2225 4.36499 21.2192 3.7749C21.8084 3.59478 22.4282 3.53657 23.0407 3.60381ZM67.7597 4.31786C68.1828 4.41314 68.4379 4.63238 68.5116 4.96328C68.548 5.12628 68.5316 5.29664 68.4647 5.44969C68.3979 5.60274 68.2841 5.73055 68.1397 5.81461C67.9051 5.94779 67.6736 5.98467 66.9442 6.00311L66.2547 6.02155V4.23693L66.9063 4.25435C67.2802 4.26459 67.6439 4.29123 67.7597 4.31786ZM125.73 5.21735L125.74 6.17215H125.147C124.267 6.17215 123.856 6.08097 123.611 5.83408C123.46 5.68348 123.407 5.52674 123.407 5.23476C123.407 4.94484 123.483 4.74507 123.66 4.57501C123.912 4.33118 124.341 4.24718 125.293 4.25742L125.72 4.26152L125.73 5.21735ZM77.2278 6.43749L77.908 7.87584H76.5107C75.6347 7.87584 75.1174 7.86354 75.1256 7.8451C75.2813 7.47322 76.5066 4.96225 76.524 4.97762C76.5373 4.98991 76.8539 5.6466 77.2278 6.43749ZM115.801 6.41187C116.177 7.20584 116.479 7.86047 116.472 7.86662C116.465 7.87174 115.84 7.87276 115.082 7.86764L113.704 7.85945L114.355 6.49383C114.713 5.7429 115.024 5.08621 115.047 5.03499C115.069 4.98377 115.094 4.94689 115.102 4.95508C115.112 4.96225 115.426 5.61791 115.801 6.41187ZM96.2501 7.40868C96.8474 7.51523 97.2776 7.78773 97.4139 8.14835C97.459 8.26411 97.4825 8.42393 97.4805 8.59501C97.4764 8.94538 97.376 9.17281 97.1496 9.34595C96.8771 9.55289 96.5093 9.6246 95.5412 9.66046L94.947 9.683V7.31955L95.4623 7.34004C95.746 7.35131 96.1005 7.38204 96.2501 7.40868ZM36.5892 14.0923V14.8791L37.5133 14.8873L38.4364 14.8955L38.4466 18.3735L38.4568 21.8516H40.4382L40.4484 18.3735L40.4587 14.8955L41.4012 14.8873L42.3437 14.8791V13.3035H36.5903V14.0903L36.5892 14.0923ZM43.6663 17.5755V21.8516H45.6486V18.2311L46.378 18.2107C47.4209 18.183 47.8399 18.1123 48.3634 17.8798C49.4063 17.4146 49.9216 16.6012 49.8264 15.5706C49.729 14.5175 49.0775 13.7747 48.0008 13.4879C47.4824 13.3496 47.2058 13.3311 45.4058 13.3147L43.6652 13.2994L43.6663 17.5755ZM51.024 13.3444C51.0342 13.368 51.8599 14.8504 52.8578 16.6391L54.6741 19.8928L54.5543 20.0178C54.3801 20.1991 54.1711 20.3415 53.9744 20.4143C53.8351 20.4655 53.7409 20.4747 53.5052 20.4635C53.304 20.4629 53.1055 20.4159 52.9254 20.3262C52.7217 20.2307 52.5288 20.1139 52.3496 19.9779L52.0577 19.7525L51.4102 20.2873L50.7627 20.823L51.0537 21.0648C51.5838 21.5168 52.2172 21.831 52.8977 21.9797C53.1887 22.0401 53.3198 22.0493 53.6948 22.037C54.458 22.0114 55.0542 21.7942 55.6064 21.3404C56.1873 20.862 56.5459 20.275 57.348 18.4944L58.7853 15.2981L59.6756 13.3209L58.6819 13.3127C58.1338 13.3086 57.6748 13.3158 57.6605 13.3291C57.6461 13.3424 57.1902 14.415 56.6483 15.713C55.7242 17.9259 55.6607 18.0662 55.6156 17.9771L54.4006 15.6024L53.2327 13.3219L52.1191 13.3137C51.233 13.3065 51.0086 13.3137 51.024 13.3444ZM61.0064 17.5786V21.8506H62.7459C64.593 21.8506 64.9321 21.8301 65.4751 21.6867C65.7906 21.6047 65.8951 21.5607 66.2476 21.3588C67.0835 20.8845 67.4974 20.1991 67.4974 19.2874C67.4995 18.52 67.2761 17.974 66.7434 17.4433C66.3398 17.0397 65.763 16.7733 65.0284 16.6504C64.6186 16.5807 63.794 16.5182 63.2899 16.5182H62.9887V14.8791H66.4494V13.3055H61.0054V17.5775L61.0064 17.5786ZM69.2482 17.5786V21.8506H71.2316V18.0928H74.6922V21.8516H76.6746V13.3055H74.6912V16.5172H71.2316V13.3045H69.2482V17.5765V17.5786ZM80.3094 17.3921C79.645 18.8157 78.9815 20.2397 78.3188 21.6641L78.2328 21.8516H80.2787L80.6987 20.9675L81.1208 20.0834L83.2383 20.0916L85.3559 20.1008L85.7544 20.9675L86.1529 21.8352L87.1672 21.8434C87.7255 21.8485 88.1824 21.8414 88.1834 21.8281C88.1834 21.8137 87.2952 19.8918 86.2103 17.556L84.2362 13.3065H82.2149L80.3094 17.3921ZM92.3622 13.3403C91.0929 13.4018 90.2078 13.8403 89.758 14.6271C89.5839 14.9324 89.506 15.1905 89.4681 15.5921C89.3616 16.7334 89.8328 17.5202 90.8788 17.9443C91.0735 18.0242 91.2824 18.099 91.3408 18.1103C91.4003 18.1226 91.4484 18.1471 91.4484 18.1656C91.4484 18.184 90.9362 19.0087 90.3113 19.9984C89.9264 20.606 89.5429 21.2146 89.1608 21.824C89.1536 21.8393 89.631 21.8516 90.2201 21.8516H91.2927L92.3325 20.1326L93.3724 18.4135H93.859V21.8516H95.8413V13.3055L94.3548 13.3096C93.5363 13.3117 92.6399 13.325 92.3622 13.3393V13.3403ZM16.9082 13.3711C15.7885 13.4797 14.7599 13.8833 13.927 14.5441C12.9681 15.3053 12.418 16.2908 12.3432 17.386C12.2121 19.3181 13.676 21.0884 15.9032 21.6897C16.6767 21.8987 16.5466 21.8926 20.4641 21.9059L24.0313 21.9192V20.9839H20.753L21.1198 20.6827C21.7509 20.1633 22.1822 19.5896 22.4311 18.9401C22.6022 18.4944 22.6708 18.1205 22.6708 17.6288C22.6708 16.4486 22.1545 15.4159 21.1475 14.584L20.7653 14.2695H24.0324V13.3383L20.6014 13.3424C18.7143 13.3444 17.0527 13.3578 16.9092 13.3711H16.9082ZM28.7162 13.3608C26.487 13.5278 24.6163 14.9078 24.1297 16.7436C24.0313 17.1135 24.0088 17.8808 24.0846 18.2762C24.2547 19.1624 24.7331 19.9502 25.4963 20.6007C26.2688 21.2584 27.2 21.6682 28.3187 21.8434C28.6435 21.8946 29.0113 21.8998 32.1963 21.8998H35.7154L35.7256 21.4418L35.7359 20.9839H32.4309L32.7659 20.7186C33.192 20.3895 33.5526 19.9837 33.8293 19.522C34.5403 18.3367 34.5557 16.9792 33.8703 15.7929C33.6029 15.3268 33.3294 15.0082 32.8602 14.6148L32.4473 14.2695H35.7348V13.3383L32.3029 13.3434C30.4158 13.3465 28.8023 13.3537 28.7172 13.3598L28.7162 13.3608ZM18.3435 14.3484C19.8197 14.6076 20.9559 15.4876 21.4138 16.7272C21.5152 16.9997 21.5204 17.051 21.5204 17.6267C21.5193 18.1973 21.5122 18.2557 21.4148 18.519C21.203 19.1079 20.8273 19.624 20.332 20.0065C19.5944 20.5966 18.8117 20.8896 17.8118 20.9511C17.3316 20.9866 16.8488 20.9476 16.3806 20.8353C15.0201 20.5096 13.9578 19.606 13.5859 18.4596C13.4937 18.1769 13.4824 18.0816 13.4824 17.6267C13.4824 17.1739 13.4937 17.0755 13.5828 16.801C14.0161 15.4692 15.3387 14.4908 16.9656 14.3013C17.4253 14.2693 17.8871 14.2851 18.3435 14.3484ZM30.1894 14.3792C31.9802 14.7551 33.2464 16.1003 33.2464 17.6267C33.2464 19.3734 31.6144 20.8251 29.5112 20.9511C28.2655 21.0259 27.2451 20.7134 26.362 19.9881C25.7811 19.5107 25.4799 19.0845 25.2689 18.4432C25.191 18.2076 25.1798 18.1 25.1818 17.6103C25.1828 17.1391 25.1961 17.009 25.2658 16.801C25.5219 16.0408 26.0731 15.3678 26.8107 14.919C27.2902 14.6271 28.0134 14.3833 28.6394 14.3023C29.0174 14.2542 29.7663 14.2921 30.1894 14.3802V14.3792ZM46.9855 14.9272C47.5142 15.0051 47.8215 15.2264 47.9045 15.587C47.934 15.6977 47.9376 15.8136 47.915 15.9259C47.8924 16.0382 47.8443 16.1438 47.7744 16.2345C47.549 16.5459 47.1597 16.6442 46.1444 16.6463H45.6486V14.8801H46.1639C46.4467 14.8811 46.8165 14.9027 46.9855 14.9272ZM93.859 15.8646V16.8481L93.2658 16.8276C92.3899 16.7938 92.0067 16.7047 91.7773 16.4793C91.6052 16.3103 91.5539 16.174 91.5519 15.8749C91.5478 15.5419 91.6472 15.3299 91.893 15.1414C92.1543 14.9426 92.4462 14.8904 93.3242 14.8842L93.859 14.8801V15.8646ZM83.9401 17.052C84.3058 17.8306 84.606 18.478 84.606 18.4893C84.606 18.5006 83.9831 18.5098 83.223 18.5098C82.4577 18.5098 81.844 18.4975 81.8512 18.4821C82.4352 17.2282 83.2312 15.5952 83.2496 15.6116C83.2639 15.6249 83.5744 16.2724 83.9401 17.052ZM64.257 18.0457C64.8481 18.1471 65.261 18.3797 65.4433 18.7116C65.5212 18.854 65.5355 18.9319 65.5355 19.2167C65.5355 19.5015 65.5212 19.5793 65.4454 19.7146C65.2057 20.1448 64.8358 20.2657 63.6597 20.2985L62.9887 20.319V19.1624C62.9887 18.5272 63.002 17.9945 63.0174 17.9812C63.0615 17.9433 63.9189 17.9883 64.257 18.0457ZM62.541 22.7849C62.1497 22.8136 61.7071 22.8976 61.4428 22.9939C61.2051 23.081 60.6437 23.3955 60.3651 23.5983L60.1725 23.7387L60.3046 23.8626C60.573 24.1167 61.3291 24.8072 61.3373 24.8072C61.3434 24.8072 61.4326 24.7488 61.536 24.6771C61.9766 24.3738 62.5052 24.2294 62.9395 24.2919C63.3811 24.3554 63.6946 24.5408 63.8575 24.8359C63.9835 25.0643 63.9743 25.5018 63.839 25.7384C63.5901 26.1759 63.0942 26.3808 62.287 26.3808H61.9386V27.8202L62.4734 27.8427C63.6208 27.8908 64.0869 28.0496 64.3584 28.485C64.5326 28.7627 64.5633 29.236 64.4291 29.5341C64.1187 30.2205 63.0358 30.4868 62.1036 30.1057C61.7901 29.9787 61.3731 29.6878 61.1775 29.4593L61.1027 29.3722L60.4224 29.7892C60.1713 29.9445 59.9189 30.0978 59.6654 30.2492C59.5906 30.2901 59.5916 30.2942 59.7033 30.4162C59.9112 30.6436 60.5546 31.1732 60.7984 31.3177C61.2789 31.6004 61.8178 31.7521 62.5574 31.8115C63.7315 31.9047 64.757 31.6537 65.5017 31.0913C66.1574 30.5975 66.4576 29.9971 66.4555 29.1919C66.4545 28.6008 66.3152 28.1705 65.9976 27.7751C65.7538 27.4708 65.347 27.1778 64.8912 26.976L64.6514 26.8705L64.8799 26.7311C65.4464 26.3869 65.6513 26.1636 65.8081 25.722C65.8941 25.4813 65.9105 25.3696 65.9105 25.0479C65.9105 24.3585 65.7159 23.9436 65.1872 23.5031C64.5162 22.9447 63.6341 22.705 62.541 22.7849ZM9.95721 23.0297C9.54622 23.0784 9.13941 23.1575 8.74014 23.2664C7.49951 23.6403 6.38489 24.4814 5.8409 25.4526C5.47824 26.0991 5.35735 26.556 5.35633 27.2792C5.3553 28.0609 5.49975 28.566 5.92491 29.2513C6.65228 30.4284 8.06195 31.2839 9.62733 31.5C10.0935 31.5646 10.4408 31.5697 13.9916 31.5605L17.0342 31.5523V30.6518H13.7539L14.1309 30.3393C14.9361 29.6724 15.4248 28.9102 15.6164 28.024C15.6983 27.6419 15.6973 26.9586 15.6133 26.557C15.4258 25.6606 14.8685 24.8 14.0766 24.1833L13.76 23.9374H17.0322V23.0072L13.5623 23.0123C11.6537 23.0144 10.031 23.0226 9.95618 23.0287L9.95721 23.0297ZM21.4466 23.0554C19.2594 23.3432 17.5987 24.6474 17.1275 26.4453C17.0332 26.8059 17.0127 27.5507 17.0865 27.9236C17.4368 29.6857 18.9643 31.0534 21.0307 31.4539C21.5777 31.5595 22.0203 31.5697 25.5189 31.5595L28.7357 31.5492V30.6538H27.1027C26.2052 30.6538 25.4707 30.6467 25.4707 30.6385C25.4707 30.6292 25.6121 30.5104 25.7862 30.3731C26.5146 29.7974 27.033 29.0413 27.2635 28.2115C27.3629 27.855 27.4018 27.0948 27.3404 26.7322C27.2354 26.1196 26.9861 25.5409 26.613 25.0439C26.342 24.6918 26.0266 24.3764 25.6746 24.1054L25.4512 23.9415H27.0935L28.7357 23.9395V23.0082L25.2463 23.0113C22.6217 23.0134 21.6802 23.0246 21.4456 23.0554H21.4466ZM33.3437 23.0297C31.7251 23.1978 30.342 23.921 29.4969 25.0428C28.708 26.0878 28.5175 27.438 28.9897 28.6182C29.6526 30.2748 31.4659 31.4427 33.5353 31.5461C33.7935 31.5584 35.4511 31.5646 37.2213 31.5595L40.4382 31.5492V30.6538H38.8062C37.9077 30.6538 37.1732 30.6497 37.1732 30.6436C37.1732 30.6385 37.3525 30.4838 37.5717 30.2983C38.6249 29.4101 39.1207 28.3519 39.0644 27.1194C39.0111 25.9741 38.4937 25.0172 37.4897 24.2048L37.1619 23.9385H40.4392V23.0082L36.9499 23.0123C35.03 23.0154 33.4072 23.0226 33.3437 23.0297ZM41.605 27.312V31.6179H43.2677C45.4058 31.6179 45.7726 31.582 46.4477 31.3105C47.0593 31.0636 47.5428 30.6753 47.8092 30.2205C48.0161 29.864 48.0653 29.6642 48.0879 29.1038C48.1053 28.6582 48.0971 28.5598 48.0213 28.2894C47.8655 27.7321 47.4506 27.1778 46.9405 26.8469C46.3463 26.4607 45.6189 26.3009 44.2779 26.263L43.5884 26.2425V24.5828H47.049V23.0052H41.605V27.312ZM53.0248 23.0461C51.6956 25.8887 50.3679 28.7319 49.0416 31.5759C49.0273 31.6076 49.2445 31.6168 50.0548 31.6168H51.0865L51.5065 30.7337L51.9276 29.8496H54.0656L56.2047 29.8506L56.6083 30.7337L57.012 31.6168H58.0364C58.5999 31.6168 59.0609 31.6127 59.0609 31.6086C59.0609 31.6035 58.1645 29.6703 57.0673 27.312L55.0727 23.0226L54.0584 23.0144C53.2696 23.0072 53.0401 23.0144 53.0248 23.0461ZM71.4713 23.1752C71.3914 23.3494 67.5845 31.5041 67.5486 31.5769C67.5333 31.6097 67.7412 31.6158 68.5669 31.6086L69.6058 31.6004L70.0196 30.7255L70.4335 29.8506H74.7107L75.1143 30.7327L75.518 31.6168H76.5455C77.5075 31.6168 77.572 31.6127 77.5515 31.5605C77.5382 31.5298 76.6397 29.5956 75.5538 27.2639L73.5786 23.0226L72.5644 23.0144L71.5481 23.0062L71.4713 23.1752ZM11.5298 24.0481C13.4383 24.4568 14.7456 25.9894 14.5458 27.5835C14.4352 28.4604 14.05 29.111 13.2837 29.7134C12.7013 30.166 12.0129 30.4622 11.2839 30.5739C10.8372 30.6487 9.91828 30.6251 9.47059 30.5258C8.9468 30.3943 8.44644 30.1828 7.98716 29.8988C6.0878 28.6418 5.95052 26.2906 7.69314 24.8963C8.30474 24.4087 8.98704 24.1167 9.82095 23.9876C10.2871 23.9159 11.037 23.9426 11.5298 24.0481ZM23.1575 24.0307C24.604 24.3257 25.7514 25.2651 26.1366 26.4709C26.2514 26.8295 26.277 27.4954 26.1919 27.8724C25.8805 29.2339 24.647 30.286 23.0407 30.5596C22.5085 30.6348 21.9686 30.6389 21.4353 30.5719C19.7603 30.3096 18.447 29.1704 18.198 27.7648C18.1345 27.3228 18.166 26.8722 18.2902 26.4433C18.6928 25.177 19.9283 24.2345 21.5173 23.9846C21.9015 23.9231 22.7477 23.9477 23.1575 24.0307ZM34.8528 24.0317C35.6006 24.1935 36.243 24.4927 36.7614 24.9209C38.3083 26.1994 38.3523 28.2556 36.8597 29.573C36.2952 30.0719 35.4767 30.4479 34.6899 30.5698C34.1523 30.6387 33.6079 30.6353 33.0712 30.5596C31.5755 30.3055 30.3523 29.3323 29.9712 28.0968C29.8483 27.6952 29.8483 26.8438 29.9712 26.4709C30.3759 25.2498 31.5274 24.3093 32.9544 24.0337C33.4154 23.9456 33.4534 23.9425 34.024 23.9548C34.3887 23.963 34.6397 23.9856 34.8528 24.0317ZM54.7623 26.7598C55.1382 27.5599 55.4466 28.2217 55.4466 28.2289C55.4466 28.2371 54.8247 28.2433 54.0656 28.2433C53.3075 28.2433 52.6857 28.233 52.6857 28.2217C52.6857 28.189 54.0584 25.2877 54.0697 25.2959C54.0748 25.3 54.3873 25.9587 54.7623 26.7598ZM73.2703 26.7557C73.6452 27.5548 73.9526 28.2156 73.9526 28.2248C73.9526 28.2351 73.3317 28.2433 72.5726 28.2433C71.8135 28.2433 71.1927 28.234 71.1927 28.2228C71.1927 28.192 72.5675 25.2887 72.5788 25.2979C72.5829 25.302 72.8943 25.9577 73.2703 26.7557ZM44.829 27.7802C45.4058 27.8693 45.831 28.1019 46.0256 28.4307C46.1209 28.5936 46.1332 28.6479 46.1332 28.9501C46.1342 29.2503 46.1229 29.3067 46.0317 29.4644C45.9741 29.5629 45.9035 29.6532 45.8217 29.7328C45.5748 29.9449 45.0728 30.0402 44.1805 30.0412L43.5884 30.0422V27.688L44.0638 27.7116C44.326 27.7239 44.6702 27.7546 44.829 27.7802ZM6.87254 36.357C6.18512 36.4943 5.60527 36.9717 5.45058 37.528C5.39218 37.738 5.39936 38.0966 5.468 38.3127C5.55508 38.5873 5.7067 38.8004 5.97716 39.0247C6.54573 39.496 7.43087 39.6169 8.16337 39.3218C8.45944 39.202 8.84464 38.8977 8.99421 38.6652C9.40195 38.032 9.24828 37.2596 8.61413 36.7566C8.37132 36.5656 8.08923 36.4307 7.78812 36.3616C7.487 36.2925 7.17433 36.291 6.87254 36.357ZM16.9185 36.3406C16.565 36.4103 16.2325 36.5611 15.9473 36.7812C15.5395 37.1172 15.3787 37.486 15.4094 38.0095C15.4248 38.2871 15.4432 38.3517 15.5692 38.5699C15.9135 39.1692 16.6388 39.5237 17.4225 39.4755C18.1345 39.4304 18.7103 39.1118 19.0063 38.5975C19.3608 37.9808 19.2338 37.3098 18.6672 36.8099C18.2103 36.4062 17.5731 36.2351 16.9185 36.3406ZM24.3038 36.3284C23.6093 36.4247 23.0233 36.8303 22.7825 37.3846C22.6667 37.652 22.6667 38.1396 22.7825 38.408C23.2599 39.5032 24.898 39.8382 25.903 39.0463C26.3179 38.7195 26.488 38.3855 26.489 37.8958C26.4911 37.3088 26.1571 36.8273 25.5342 36.5189C25.1492 36.344 24.7237 36.2781 24.3038 36.3284ZM33.6736 36.3284C32.979 36.4247 32.3941 36.8303 32.1533 37.3846C32.0365 37.652 32.0365 38.1396 32.1533 38.408C32.6297 39.5032 34.2678 39.8382 35.2738 39.0463C35.6877 38.7195 35.8578 38.3855 35.8588 37.8958C35.8608 37.3088 35.5269 36.8273 34.905 36.5189C34.5197 36.3438 34.0938 36.2779 33.6736 36.3284ZM37.0564 36.3355C36.873 36.3663 36.6702 36.4492 36.5104 36.5589L36.3792 36.65L36.5667 36.8314C36.6702 36.9307 36.7716 37.0127 36.79 37.0127C36.8105 37.0127 36.8761 36.982 36.9376 36.9451C37.1629 36.8068 37.5686 36.8426 37.6772 37.0106C37.7377 37.1049 37.7254 37.3098 37.6537 37.3948C37.5717 37.4901 37.373 37.5587 37.1742 37.5587H37.0175V38.1048H37.2224C37.6926 38.1048 37.9118 38.2431 37.9118 38.5361C37.9118 38.6723 37.8924 38.7236 37.8155 38.7922C37.6987 38.8957 37.5645 38.9407 37.3668 38.9407C37.1629 38.9407 37.0492 38.8998 36.8648 38.7625C36.7788 38.6979 36.6937 38.6498 36.6763 38.6559C36.5841 38.6877 36.202 38.9285 36.201 38.9551C36.201 38.9715 36.3034 39.0678 36.4264 39.1671C36.7173 39.3997 36.9468 39.4704 37.4057 39.4683C37.8217 39.4663 38.0675 39.3843 38.3165 39.1651C38.4203 39.0802 38.5007 38.97 38.5498 38.8452C38.5989 38.7203 38.6153 38.585 38.5972 38.4521C38.5603 38.1621 38.4077 37.9634 38.0952 37.8005L37.9887 37.7442L38.1597 37.611C38.2545 37.5457 38.329 37.4552 38.3749 37.3497C38.59 36.7002 37.9282 36.1921 37.0564 36.3355ZM64.7785 36.3406C64.425 36.4103 64.0925 36.5611 63.8073 36.7812C63.3995 37.1172 63.2387 37.486 63.2694 38.0095C63.2858 38.2871 63.3043 38.3517 63.4292 38.5699C63.7735 39.1692 64.4988 39.5237 65.2835 39.4755C65.9955 39.4304 66.5713 39.1118 66.8663 38.5975C67.2208 37.9808 67.0938 37.3098 66.5283 36.8099C66.0703 36.4062 65.4331 36.2351 64.7795 36.3406H64.7785ZM74.2886 36.357C73.5612 36.5025 72.9691 37.0383 72.8533 37.6581C72.7632 38.1365 72.966 38.659 73.3727 39.0012C73.7333 39.3034 74.098 39.4427 74.6133 39.4755C75.3919 39.5237 76.0947 39.1887 76.4471 38.5996C76.5988 38.3466 76.6111 38.3086 76.6274 37.9952C76.6418 37.7186 76.6315 37.6233 76.5629 37.4378C76.2658 36.6306 75.2752 36.1593 74.2886 36.357ZM89.6443 36.355C89.0645 36.4769 88.5666 36.7935 88.3402 37.1848C88.1745 37.4758 88.1154 37.8155 88.1732 38.1454C88.231 38.4752 88.402 38.7746 88.6567 38.992C89.046 39.3321 89.4343 39.4632 90.0685 39.4663C90.7067 39.4704 91.0765 39.3567 91.5642 39.0084L91.7004 38.911L91.4607 38.7113L91.22 38.5115L91.0632 38.6283C90.9495 38.7082 90.8284 38.7772 90.7016 38.8342C90.5182 38.9141 90.4557 38.9244 90.1268 38.9244C89.8236 38.9244 89.7222 38.911 89.5634 38.8506C89.128 38.6846 88.879 38.3742 88.8524 37.9603C88.8299 37.6141 88.9313 37.3856 89.211 37.1551C89.6996 36.7504 90.512 36.7515 91.055 37.1571L91.2148 37.277L91.432 37.1233C91.5519 37.0393 91.6594 36.9492 91.6717 36.9215C91.6973 36.8672 91.4894 36.7064 91.22 36.5722C90.76 36.3447 90.1187 36.2556 89.6443 36.355ZM9.91828 37.8968V39.4233H10.618V36.9174H11.8627V39.4233H12.5624V36.3704H9.9193L9.91828 37.8968ZM13.0286 36.6439V36.9174H13.6904V39.4233H14.3901V36.9174H15.0888V36.3714H13.0286V36.6439ZM19.872 37.8958V39.4294L20.6004 39.4161C21.4282 39.4007 21.5808 39.37 21.8298 39.1723C22.3164 38.7881 22.2764 38.1509 21.7478 37.8456L21.546 37.7298L21.6453 37.653C21.724 37.5955 21.7876 37.5198 21.8306 37.4324C21.8736 37.345 21.8948 37.2484 21.8922 37.151C21.8948 37.0421 21.8691 36.9345 21.8178 36.8385C21.7664 36.7424 21.6912 36.6613 21.5992 36.6029C21.3554 36.4369 21.1649 36.398 20.4836 36.3796L19.872 36.3622V37.8958ZM29.3586 37.8968V39.4233H30.0193V38.116L30.3605 38.0956C30.7395 38.073 30.9035 38.0351 31.1145 37.9214C31.6882 37.61 31.6493 36.7842 31.0479 36.5097C30.8369 36.4134 30.4824 36.3714 29.8739 36.3714H29.3586V37.8968ZM39.3112 37.8968V39.4233H40.011V38.074H41.2557V39.4233H41.9554V36.3704H41.2547V37.528H40.011V36.3714H39.3112V37.8968ZM42.8108 37.8989V39.4253L43.1089 39.4161L43.4081 39.4069L44.0904 38.4603L44.7737 37.5126L44.784 38.4674L44.7942 39.4233H45.4929V36.3704L45.1917 36.3714H44.8905L44.2389 37.2975C43.8804 37.8067 43.5628 38.2503 43.531 38.2851C43.4798 38.3394 43.4737 38.2339 43.4726 37.359L43.4716 36.3714H42.8108V37.8989ZM46.0768 36.7002C46.0789 37.4993 46.2202 37.7616 46.7653 37.9685C46.9323 38.032 47.0552 38.0495 47.4558 38.0648L47.9424 38.0833V39.4233H48.6421V36.3704H47.9424V37.528L47.5828 37.526C46.8913 37.5229 46.8144 37.4542 46.7847 36.8027L46.7642 36.3714H46.0758L46.0768 36.7002ZM49.4985 37.8968V39.4233H50.1972V38.074H51.442V39.4233H52.1417V36.3704H51.442V37.528H50.1972V36.3714H49.4975V37.8978L49.4985 37.8968ZM54.1107 36.3949C54.0759 36.4421 52.7246 39.3659 52.7246 39.3946C52.7246 39.4099 52.8803 39.4233 53.0698 39.4233H53.4161L53.5677 39.1098L53.7214 38.7963H55.2294L55.3687 39.1016L55.507 39.4069L55.8656 39.4171C56.0623 39.4212 56.2242 39.4192 56.2242 39.411C56.2242 39.4007 54.9549 36.6582 54.8432 36.4277C54.8196 36.3796 54.7633 36.3714 54.4723 36.3714C54.2838 36.3714 54.1209 36.3816 54.1107 36.3949ZM57.6431 36.4031C57.0478 36.4615 56.7364 36.7207 56.6995 37.191C56.6893 37.3139 56.7016 37.4778 56.7272 37.5536C56.7866 37.736 56.9935 37.9214 57.2363 38.0075L57.431 38.0771L57.2159 38.4121L56.7856 39.0862L56.5694 39.4233H57.3326L57.7117 38.7963C58.0518 38.2328 58.0989 38.1703 58.187 38.1703H58.2844V39.4233H58.9841V36.3704L58.4309 36.3755C58.1256 36.3786 57.7721 36.3908 57.6431 36.4031ZM60.8896 36.6439V36.9174H61.5504V39.4233H62.2501V36.9174H62.9498V36.3714H60.8896V36.6439ZM67.732 37.8937V39.4233H68.4317V38.116L68.7831 38.0956C69.2206 38.0689 69.4705 37.9859 69.6703 37.7985C70.1323 37.3651 69.911 36.6142 69.2728 36.4482C69.1355 36.4124 68.863 36.3908 68.402 36.3796L67.732 36.3632V37.8937ZM70.6087 37.8968V39.4233H71.3084V36.9174H72.4364V36.3714H70.6087V37.8968ZM77.3354 37.9009V39.4304L78.0638 39.4171C78.7225 39.4048 78.8126 39.3966 78.997 39.329C79.6332 39.0965 79.8207 38.3804 79.3536 37.9624C79.2727 37.8889 79.1807 37.8288 79.081 37.7841L78.9632 37.7431L79.0995 37.6274C79.4273 37.3497 79.4417 36.9697 79.1333 36.6879C78.869 36.4462 78.5504 36.3724 77.7728 36.3714H77.3354V37.9009ZM80.6085 37.8784C80.2192 38.7082 79.9016 39.3946 79.9016 39.4048C79.9016 39.4151 80.0625 39.4233 80.2602 39.4222H80.6208L81.1023 38.3701C81.3687 37.7923 81.6064 37.2842 81.631 37.2432C81.6719 37.1756 81.7283 37.2821 82.176 38.2636C82.4526 38.866 82.6882 39.3741 82.7015 39.3925C82.7169 39.413 82.8654 39.4222 83.0806 39.4161L83.434 39.4069L82.7271 37.8907L82.0202 36.3724H81.6678L81.3154 36.3714L80.6085 37.8784ZM84.7023 36.4031C84.2802 36.4441 84.0169 36.5824 83.8633 36.8447C83.7373 37.0598 83.7321 37.486 83.853 37.6725C83.9626 37.8405 84.0784 37.9265 84.3058 38.0105L84.4923 38.0781L84.0825 38.7307C83.8571 39.0893 83.6727 39.3925 83.6727 39.4038C83.6727 39.414 83.8387 39.4233 84.0415 39.4233H84.4113L84.7904 38.7963C85.1141 38.2595 85.1807 38.1703 85.2565 38.1703H85.3446V39.4233H86.0443V36.3704L85.4901 36.3755C85.1858 36.3786 84.8314 36.3908 84.7023 36.4031ZM91.9924 36.6439V36.9174H92.6532V39.4233H93.3529V36.9174H94.0147V36.3714H91.9924V36.6439ZM94.9695 37.7933C94.6068 38.575 94.2872 39.2614 94.2585 39.3188L94.2073 39.4233H94.9377L95.0853 39.1016L95.2328 38.7799L95.9888 38.7881L96.7459 38.7963L96.8853 39.1098L97.0246 39.4233H97.7468L97.669 39.2542L96.9631 37.7278L96.3351 36.3714H95.6282L94.9695 37.7933ZM98.6217 37.8681L97.9087 39.3936C97.9015 39.4099 98.0521 39.4233 98.2611 39.4233H98.6268L99.1473 38.2994C99.4341 37.6806 99.679 37.1858 99.6923 37.1992C99.7056 37.2114 99.9412 37.7175 100.217 38.323L100.717 39.4233H101.082C101.414 39.4233 101.446 39.4181 101.423 39.3669L100.713 37.8405L100.026 36.3714H99.6739L99.3214 36.3724L98.6217 37.8681ZM101.868 37.9009V39.4304L102.616 39.4171C103.456 39.4018 103.565 39.3802 103.825 39.1723C104.049 38.994 104.132 38.8352 104.153 38.5514C104.178 38.2093 104.095 38.0146 103.831 37.7964C103.594 37.6007 103.382 37.5352 102.889 37.5055L102.568 37.486V36.3714H101.868V37.9009ZM104.784 37.8968V39.4233H105.484V38.074H106.728V39.4233H107.428V36.3704H106.728V37.528H105.484V36.3714H104.784V37.8968ZM108.283 37.9009V39.4304L109.031 39.4171C109.871 39.4018 109.98 39.3802 110.24 39.1723C110.465 38.994 110.549 38.8352 110.569 38.5514C110.594 38.2093 110.51 38.0146 110.246 37.7964C110.01 37.6007 109.798 37.5352 109.304 37.5055L108.983 37.486V36.3714H108.283V37.9009ZM111.121 37.8968V39.4233H111.782V36.3704H111.121V37.8968ZM112.482 36.4359C112.505 36.4718 112.759 36.7976 113.047 37.1602C113.335 37.5219 113.571 37.8333 113.571 37.8497C113.571 37.8671 113.317 38.2001 113.007 38.5904C112.697 38.9797 112.425 39.327 112.403 39.3608C112.364 39.4202 112.378 39.4222 112.748 39.4222H113.134L113.55 38.8926C113.78 38.6016 113.981 38.3701 113.997 38.3783C114.014 38.3875 114.209 38.6252 114.431 38.909L114.834 39.4233H115.213C115.422 39.4233 115.592 39.4161 115.592 39.4079C115.592 39.3987 115.333 39.0627 115.016 38.66C114.699 38.2584 114.426 37.9101 114.41 37.8876C114.391 37.861 114.587 37.5844 114.948 37.1274C115.259 36.732 115.514 36.4001 115.514 36.3898C115.514 36.3796 115.344 36.3714 115.135 36.3724H114.756L114.433 36.7894C113.931 37.4338 114.038 37.4245 113.589 36.857L113.205 36.3714H112.823C112.451 36.3714 112.442 36.3734 112.482 36.4359ZM117.225 36.6439V36.9174H117.886V39.4233H118.586V36.9174H119.286V36.3714H117.225V36.6439ZM119.752 37.8937V39.4233H120.452V38.116L120.803 38.0956C121.241 38.0689 121.491 37.9859 121.691 37.7985C122.153 37.3651 121.931 36.6142 121.293 36.4482C121.156 36.4124 120.883 36.3908 120.423 36.3796L119.752 36.3632V37.8937ZM122.393 36.4421C122.413 36.483 122.71 37.0147 123.053 37.6243L123.677 38.7328L123.543 38.8373C123.341 38.993 123.118 38.9756 122.854 38.784L122.72 38.6877L122.498 38.8731L122.276 39.0596L122.431 39.1753C122.84 39.4806 123.335 39.5585 123.742 39.3833C124.142 39.2112 124.222 39.0862 124.903 37.5925L125.46 36.3714H124.749L124.402 37.1981C124.212 37.653 124.045 38.0372 124.03 38.0505C124.015 38.0648 123.808 37.696 123.571 37.2309L123.139 36.3878L122.749 36.3775L122.359 36.3693L122.393 36.4421ZM125.934 37.9009V39.4304L126.663 39.4171C127.317 39.4059 127.412 39.3966 127.586 39.3321C127.821 39.244 128.012 39.0985 128.121 38.9254C128.236 38.742 128.26 38.3619 128.169 38.1365C128.091 37.9419 127.856 37.7134 127.642 37.6223C127.482 37.5557 127.098 37.4962 126.818 37.4962H126.634V36.9174H127.84V36.3714H125.934V37.9009ZM7.69211 36.9021C7.94311 36.9635 8.25557 37.191 8.39182 37.4122C8.5291 37.6345 8.55676 37.9911 8.45739 38.2554C8.40207 38.4039 8.33753 38.4849 8.1521 38.6385C7.85808 38.8834 7.6286 38.9561 7.2352 38.9336C6.75473 38.9059 6.34699 38.6621 6.18512 38.3066C6.07038 38.0546 6.0878 37.6489 6.22508 37.4153C6.48836 36.9666 7.0928 36.7545 7.69211 36.9021ZM17.8036 36.9451C18.0566 37.0537 18.2636 37.2248 18.3834 37.4266C18.4777 37.5844 18.491 37.6458 18.491 37.8978C18.491 38.1488 18.4777 38.2103 18.3824 38.3691C17.9358 39.121 16.6695 39.1333 16.2208 38.3896C16.1163 38.2175 16.1009 38.1581 16.1009 37.9327C16.1009 37.7892 16.1184 37.6192 16.1409 37.5536C16.2331 37.2791 16.5968 36.9717 16.9308 36.8857C17.1387 36.8334 17.6161 36.8652 17.8036 36.9451ZM25.1541 36.9656C25.9737 37.3344 26.0342 38.3414 25.2607 38.7727C25.0179 38.908 24.8099 38.952 24.4985 38.9336C24.0682 38.908 23.6933 38.6979 23.5007 38.3722C23.4146 38.2246 23.3951 38.1488 23.3931 37.9337C23.39 37.6161 23.473 37.3979 23.6697 37.2084C23.9443 36.942 24.2096 36.8498 24.6552 36.8642C24.8909 36.8723 24.9882 36.8918 25.1531 36.9666L25.1541 36.9656ZM34.5239 36.9656C35.3435 37.3344 35.4039 38.3414 34.6305 38.7727C34.3877 38.908 34.1797 38.952 33.8683 38.9336C33.438 38.908 33.0641 38.6979 32.8715 38.3722C32.7844 38.2246 32.7649 38.1488 32.7629 37.9337C32.7598 37.6161 32.8428 37.3979 33.0395 37.2084C33.314 36.942 33.5794 36.8498 34.025 36.8642C34.2606 36.8723 34.358 36.8908 34.5239 36.9656ZM65.6636 36.9451C65.9025 37.0409 66.1054 37.2093 66.2435 37.4266C66.3377 37.5844 66.352 37.6458 66.352 37.8978C66.352 38.1488 66.3377 38.2103 66.2424 38.3691C65.7958 39.121 64.5295 39.1333 64.0808 38.3896C63.9763 38.2175 63.9609 38.1581 63.9609 37.9327C63.9609 37.7892 63.9794 37.6192 64.0009 37.5536C64.0931 37.2791 64.4578 36.9717 64.7918 36.8857C64.9997 36.8334 65.4761 36.8652 65.6636 36.9451ZM75.2424 36.9451C75.476 37.0373 75.7106 37.2319 75.8263 37.4256C75.9032 37.5536 75.9154 37.6253 75.9154 37.9132C75.9154 38.2984 75.8581 38.4275 75.5856 38.6518C75.3233 38.869 75.1512 38.9244 74.7496 38.9244C74.4576 38.9244 74.3706 38.9121 74.2251 38.8496C73.9917 38.7513 73.7918 38.5876 73.6493 38.3783C73.5602 38.239 73.5469 38.1796 73.5469 37.9132C73.5448 37.6591 73.5602 37.5792 73.637 37.4389C73.7548 37.2227 74.0868 36.9676 74.3337 36.9021C74.598 36.8334 75.0149 36.8519 75.2434 36.9441L75.2424 36.9451ZM21.1403 37.026C21.2397 37.1203 21.2632 37.2924 21.1915 37.401C21.1321 37.4932 20.9467 37.5598 20.7479 37.5598H20.5717V36.9092L20.8104 36.9236C21.0112 36.9359 21.0645 36.9523 21.1413 37.026H21.1403ZM30.7354 37.0117C30.8153 37.0731 30.8358 37.1192 30.8338 37.2371C30.8317 37.484 30.7057 37.5598 30.2939 37.5598H30.0193V36.9102L30.3267 36.9225C30.5889 36.9328 30.6504 36.9451 30.7354 37.0117ZM58.2833 37.2709V37.6243H58.0303C57.7455 37.6243 57.5334 37.5649 57.4709 37.4686C57.4064 37.3682 57.4218 37.1356 57.4976 37.0588C57.6082 36.9461 57.7055 36.9195 58.0026 36.9184L58.2844 36.9174V37.2709H58.2833ZM69.0095 36.9533C69.2451 37.0199 69.323 37.2914 69.155 37.4532C69.0689 37.5352 69.0341 37.5444 68.7462 37.5557L68.4317 37.5659V36.9174H68.6591C68.7841 36.9174 68.9409 36.9338 69.0095 36.9533ZM78.4981 36.9635C78.7163 37.0578 78.7471 37.318 78.5586 37.4655C78.4899 37.5167 78.4018 37.5423 78.2492 37.5536L78.034 37.568V36.9174H78.2123C78.3086 36.9174 78.4377 36.9379 78.4981 36.9635ZM85.3446 37.275V37.6325L85.0434 37.6182C84.6285 37.5977 84.4892 37.5106 84.4892 37.2698C84.4892 37.024 84.6613 36.9215 85.0813 36.9184L85.3446 36.9174V37.275ZM121.031 36.9533C121.264 37.0199 121.343 37.2914 121.175 37.4532C121.089 37.5352 121.054 37.5444 120.767 37.5557L120.452 37.5659V36.9174H120.68C120.805 36.9174 120.962 36.9338 121.031 36.9533ZM54.7315 37.7216L54.9692 38.2339H53.9673L54.0195 38.1304C54.0482 38.073 54.1578 37.8415 54.2623 37.6161C54.3678 37.3907 54.4631 37.2063 54.4734 37.2063C54.4846 37.2063 54.6004 37.4389 54.7315 37.7216ZM96.246 37.7226C96.3659 37.9808 96.4642 38.2011 96.4642 38.2123C96.4642 38.2246 96.2429 38.2349 95.9735 38.2349C95.5965 38.2349 95.4879 38.2246 95.5022 38.1939L95.746 37.6786C95.869 37.4174 95.9837 37.2155 96.0001 37.2289C96.0155 37.2432 96.1272 37.4645 96.246 37.7226ZM27.2195 38.2984V38.5555H28.4642V38.0413H27.2184L27.2195 38.2984ZM103.116 38.0781C103.44 38.1673 103.581 38.4306 103.437 38.6744C103.349 38.824 103.201 38.8731 102.83 38.8752L102.568 38.8772V38.0413H102.776C102.89 38.0413 103.042 38.0587 103.116 38.0781ZM109.531 38.0781C109.855 38.1673 109.996 38.4306 109.852 38.6744C109.764 38.824 109.616 38.8731 109.245 38.8752L108.983 38.8772V38.0413H109.191C109.305 38.0413 109.459 38.0587 109.531 38.0781ZM127.191 38.0884C127.391 38.1468 127.481 38.2216 127.534 38.3681C127.551 38.4079 127.56 38.4508 127.56 38.4942C127.56 38.5375 127.551 38.5804 127.533 38.6201C127.467 38.8035 127.35 38.8537 126.961 38.8711L126.634 38.8854V38.0413L126.838 38.0433C126.95 38.0433 127.109 38.0638 127.191 38.0884ZM21.2509 38.1509C21.3841 38.2226 21.504 38.3886 21.504 38.5012C21.504 38.744 21.2642 38.8772 20.8237 38.8772H20.5717V38.0658L20.8606 38.0812C21.0409 38.0904 21.1884 38.1171 21.2509 38.1509ZM78.6856 38.1499C78.8393 38.2154 78.9294 38.3506 78.9294 38.5187C78.9294 38.7615 78.7143 38.8772 78.2584 38.8772H78.0351V38.0648L78.2973 38.0812C78.4418 38.0894 78.6159 38.1201 78.6856 38.1499Z" fill="#B71E23" stroke="#B71E23" stroke-width="0.4"/>
<mask id="mask2_1_145" style="mask-type:alpha" maskUnits="userSpaceOnUse" x="5" y="2" width="124" height="38">
<path fill-rule="evenodd" clip-rule="evenodd" d="M21.9677 2.67356C20.7752 2.8006 19.7508 3.21346 18.9128 3.906C18.1546 4.53195 17.6813 5.28288 17.4724 6.18851C17.3822 6.58088 17.3842 7.27752 17.4764 7.68218C17.8739 9.43402 19.4332 10.7443 21.5764 11.1285C21.9349 11.192 22.0814 11.1951 25.5154 11.2074L29.0826 11.2197V10.2843H25.7972L26.0984 10.0579C26.8513 9.48934 27.425 8.64416 27.6494 7.77029C27.7693 7.30518 27.7693 6.55015 27.6494 6.08504C27.4281 5.22346 26.9681 4.51965 26.2213 3.89985L25.8248 3.56997H29.0826V2.63873L25.6507 2.64283C23.7646 2.64488 22.106 2.65922 21.9677 2.67356ZM30.1809 6.93535L30.1911 11.2002L34.0492 11.2084L37.9084 11.2166V11.8272H39.7361V9.73829H37.6359V2.67049H35.6536V9.73931H32.1929V2.67049H30.1706L30.1809 6.93535ZM41.0187 6.94354V11.2166L43.8278 11.2084L46.6369 11.2002L46.6471 10.4052L46.6574 9.61023H42.9621V7.36152H46.6574L46.6471 6.58293L46.6369 5.80331L44.799 5.79511L42.9621 5.78692V4.2451H46.6563V2.66947H41.0187V6.94354ZM48.4543 6.93535L48.4645 11.2002H50.4469L50.4571 9.3285L50.4673 7.45782H53.9259V11.2176L54.9084 11.2094L55.8899 11.2002L55.9001 6.93535L55.9103 2.67049H53.9249V5.88322H50.4643V2.67049H48.445L48.4553 6.93535H48.4543ZM57.2401 3.46548L57.2503 4.26149L58.1539 4.26968L59.0585 4.27788L59.0688 7.73955L59.078 11.2002L60.0789 11.2094L61.0798 11.2176V4.27686H62.9464V2.67049H57.2299L57.2401 3.46548ZM64.2782 6.93227L64.2884 11.2002H66.2308L66.2411 9.39304L66.2513 7.58588H66.614C67.1313 7.58588 67.9366 7.52851 68.2326 7.47012C68.3719 7.44246 68.667 7.34718 68.8883 7.2601C69.5716 6.98759 70.0705 6.51736 70.2949 5.93137C70.4117 5.62813 70.4455 4.88436 70.3584 4.54424C70.2431 4.084 69.9822 3.6733 69.6146 3.37328C69.3361 3.1401 69.0087 2.97241 68.6567 2.88256C68.0595 2.71762 67.7655 2.69508 65.9491 2.67971L64.2669 2.66434L64.2772 6.93227H64.2782ZM75.4736 2.7586C75.452 2.80777 74.5577 4.7184 73.4861 7.00399C72.8302 8.39568 72.1814 9.79068 71.5396 11.1889C71.5396 11.2043 71.9924 11.2166 72.5467 11.2166H73.5537L73.7535 10.7904L74.1684 9.90732L74.3835 9.44939L76.5093 9.45758L78.634 9.46578L78.9065 10.06L79.3081 10.9359L79.4372 11.2166H81.4616L81.438 11.1449C81.4247 11.1039 80.5344 9.18508 79.4598 6.879L77.5041 2.68688L76.5083 2.67869L75.5125 2.66947L75.4736 2.7586ZM83.8537 6.8872L81.858 11.1602C81.8345 11.2145 81.8929 11.2166 82.8764 11.2094L83.9203 11.2002L85.3648 8.08992C85.8467 7.04737 86.333 6.00684 86.8236 4.96837C86.8318 4.96222 87.4404 6.27559 88.1769 7.88605L89.6102 11.0158L89.7024 11.2166H90.7535C91.5771 11.2166 91.7984 11.2074 91.7841 11.1756L87.9003 2.83953L87.8235 2.67049H85.8227L83.8537 6.8872ZM92.9715 6.93535L92.9807 11.2002L94.3412 11.2104C96.4639 11.2258 97.1851 11.1633 97.8018 10.9134C98.5056 10.6265 99.1029 10.0159 99.3242 9.35309C99.4225 9.05804 99.4246 8.17393 99.3272 7.87581C99.1871 7.50511 98.9727 7.16695 98.6972 6.88207C97.9903 6.19978 97.1871 5.94366 95.5951 5.89346L94.9435 5.87297V2.67049H92.9612L92.9715 6.93535ZM101.135 6.93535L101.146 11.2002H103.128L103.138 9.3285L103.148 7.45782H106.608V11.2176L107.59 11.2094L108.571 11.2002L108.581 6.93535L108.59 2.67049H106.608V5.88322H103.147V2.67049H101.125L101.135 6.93535ZM114.055 2.77601C114.018 2.84772 110.375 10.6214 110.118 11.1756C110.102 11.2094 110.292 11.2166 111.123 11.2094L112.147 11.2002L112.556 10.3253L112.965 9.45041H115.089C117.077 9.45041 117.215 9.45349 117.24 9.50573L117.617 10.3325C117.811 10.7566 117.985 11.1295 118.004 11.1602C118.038 11.2115 118.129 11.2166 119.054 11.2166C119.85 11.2166 120.064 11.2074 120.049 11.1756C119.992 11.0578 116.158 2.83338 116.125 2.75962L116.086 2.67049H114.107L114.055 2.77601ZM124.319 2.70635C123.306 2.75245 122.676 2.95017 122.137 3.39274C121.778 3.68779 121.55 4.01562 121.414 4.42848C121.301 4.77065 121.289 5.63222 121.392 5.94776C121.622 6.65157 122.225 7.172 123.103 7.42402C123.232 7.4609 123.302 7.4988 123.294 7.52646C123.287 7.55003 122.795 8.34399 122.201 9.28855C121.605 10.2341 121.09 11.0547 121.055 11.1121L120.991 11.2166H123.132L124.182 9.48012L125.233 7.74365L125.475 7.7539L125.716 7.76312L125.727 9.49037L125.737 11.2176L126.699 11.2094L127.661 11.2002L127.671 6.93535L127.68 2.67049L126.29 2.67561C125.526 2.67869 124.639 2.69201 124.319 2.70635ZM23.0373 3.60378C24.5504 3.74516 25.8463 4.5842 26.3647 5.75721C26.5594 6.19773 26.6065 6.43131 26.6055 6.94354C26.6055 7.33694 26.5891 7.4568 26.5061 7.71599C26.1885 8.70972 25.454 9.46885 24.3742 9.91757C23.9019 10.1122 23.4419 10.2177 22.901 10.2515C22.0988 10.3017 21.4995 10.2075 20.7814 9.91654C19.9721 9.58974 19.3471 9.07443 18.9527 8.40546C18.8406 8.2172 18.7447 8.0198 18.6659 7.81536C18.1075 6.12499 19.2191 4.36496 21.2158 3.77487C21.805 3.59475 22.4248 3.53654 23.0373 3.60378ZM67.7562 4.31783C68.1793 4.41311 68.4344 4.63235 68.5082 4.96325C68.5446 5.12625 68.5282 5.29661 68.4613 5.44966C68.3945 5.60271 68.2806 5.73052 68.1363 5.81458C67.9017 5.94776 67.6702 5.98464 66.9408 6.00308L66.2513 6.02152V4.2369L66.9029 4.25432C67.2768 4.26456 67.6405 4.2912 67.7562 4.31783ZM125.727 5.21732L125.737 6.17212H125.144C124.264 6.17212 123.853 6.08094 123.607 5.83404C123.456 5.68345 123.403 5.5267 123.403 5.23473C123.403 4.94481 123.48 4.74504 123.656 4.57498C123.908 4.33115 124.338 4.24715 125.289 4.25739L125.716 4.26149L125.727 5.21732ZM77.2244 6.43746L77.9046 7.87581H76.5072C75.6313 7.87581 75.114 7.86351 75.1222 7.84507C75.2779 7.47319 76.5032 4.96222 76.5206 4.97759C76.5339 4.98988 76.8504 5.64657 77.2244 6.43746ZM115.798 6.41184C116.174 7.20581 116.476 7.86044 116.469 7.86659C116.461 7.87171 115.837 7.87273 115.078 7.86761L113.701 7.85942L114.352 6.4938C114.71 5.74287 115.021 5.08618 115.044 5.03496C115.065 4.98374 115.091 4.94686 115.099 4.95505C115.108 4.96222 115.423 5.61788 115.798 6.41184ZM96.2467 7.40865C96.8439 7.51519 97.2742 7.7877 97.4105 8.14831C97.4555 8.26408 97.4791 8.4239 97.4771 8.59498C97.473 8.94535 97.3726 9.17278 97.1461 9.34592C96.8736 9.55286 96.5059 9.62457 95.5377 9.66043L94.9435 9.68297V7.31952L95.4589 7.34001C95.7426 7.35128 96.0971 7.38201 96.2467 7.40865ZM36.5858 14.0923V14.8791L37.5099 14.8873L38.4329 14.8955L38.4432 18.3735L38.4534 21.8516H40.4347L40.445 18.3735L40.4552 14.8955L41.3977 14.8873L42.3403 14.8791V13.3034H36.5869V14.0902L36.5858 14.0923ZM43.6628 17.5755V21.8516H45.6452V18.2311L46.3746 18.2106C47.4175 18.183 47.8365 18.1123 48.36 17.8797C49.4029 17.4146 49.9182 16.6012 49.823 15.5706C49.7256 14.5174 49.0741 13.7747 47.9974 13.4878C47.479 13.3495 47.2024 13.3311 45.4024 13.3147L43.6618 13.2993L43.6628 17.5755ZM51.0206 13.3444C51.0308 13.368 51.8565 14.8504 52.8544 16.6391L54.6707 19.8928L54.5509 20.0178C54.3767 20.1991 54.1677 20.3415 53.971 20.4143C53.8317 20.4655 53.7374 20.4747 53.5018 20.4634C53.3005 20.4629 53.1021 20.4159 52.922 20.3262C52.7183 20.2306 52.5253 20.1139 52.3462 19.9778L52.0542 19.7524L51.4068 20.2872L50.7593 20.823L51.0503 21.0648C51.5804 21.5168 52.2137 21.831 52.8943 21.9796C53.1853 22.0401 53.3164 22.0493 53.6913 22.037C54.4546 22.0114 55.0508 21.7942 55.603 21.3404C56.1839 20.8619 56.5424 20.2749 57.3446 18.4944L58.7819 15.2981L59.6722 13.3208L58.6784 13.3127C58.1304 13.3086 57.6714 13.3157 57.6571 13.329C57.6427 13.3424 57.1868 14.415 56.6449 15.713C55.7208 17.9258 55.6573 18.0662 55.6122 17.977L54.3972 15.6023L53.2293 13.3219L52.1157 13.3137C51.2295 13.3065 51.0052 13.3137 51.0206 13.3444ZM61.003 17.5785V21.8506H62.7425C64.5896 21.8506 64.9287 21.8301 65.4717 21.6866C65.7872 21.6047 65.8917 21.5606 66.2441 21.3588C67.0801 20.8845 67.494 20.1991 67.494 19.2873C67.496 18.52 67.2727 17.974 66.74 17.4433C66.3363 17.0397 65.7596 16.7733 65.025 16.6504C64.6152 16.5807 63.7905 16.5182 63.2865 16.5182H62.9853V14.8791H66.4459V13.3055H61.0019V17.5775L61.003 17.5785ZM69.2448 17.5785V21.8506H71.2282V18.0928H74.6888V21.8516H76.6712V13.3055H74.6878V16.5172H71.2282V13.3045H69.2448V17.5765V17.5785ZM80.306 17.3921C79.6416 18.8157 78.9781 20.2397 78.3154 21.6641L78.2294 21.8516H80.2752L80.6953 20.9675L81.1173 20.0834L83.2349 20.0915L85.3525 20.1008L85.751 20.9675L86.1495 21.8352L87.1637 21.8434C87.7221 21.8485 88.179 21.8413 88.18 21.828C88.18 21.8137 87.2918 19.8918 86.2069 17.556L84.2327 13.3065H82.2115L80.306 17.3921ZM92.3588 13.3403C91.0895 13.4018 90.2044 13.8403 89.7546 14.627C89.5805 14.9323 89.5026 15.1905 89.4647 15.5921C89.3581 16.7333 89.8294 17.5201 90.8754 17.9443C91.07 18.0242 91.279 18.099 91.3374 18.1102C91.3968 18.1225 91.445 18.1471 91.445 18.1656C91.445 18.184 90.9328 19.0087 90.3078 19.9983C89.923 20.606 89.5395 21.2145 89.1574 21.8239C89.1502 21.8393 89.6276 21.8516 90.2167 21.8516H91.2893L92.3291 20.1325L93.3689 18.4135H93.8556V21.8516H95.8379V13.3055L94.3514 13.3096C93.5329 13.3116 92.6364 13.3249 92.3588 13.3393V13.3403ZM16.9048 13.371C15.7851 13.4796 14.7565 13.8833 13.9236 14.5441C12.9647 15.3052 12.4146 16.2908 12.3398 17.3859C12.2086 19.3181 13.6726 21.0884 15.8998 21.6897C16.6733 21.8987 16.5432 21.8926 20.4607 21.9059L24.0279 21.9192V20.9839H20.7496L21.1164 20.6827C21.7474 20.1633 22.1788 19.5896 22.4277 18.94C22.5988 18.4944 22.6674 18.1205 22.6674 17.6287C22.6674 16.4485 22.1511 15.4159 21.144 14.584L20.7619 14.2695H24.0289V13.3383L20.598 13.3424C18.7109 13.3444 17.0492 13.3577 16.9058 13.371H16.9048ZM28.7128 13.3608C26.4836 13.5278 24.6129 14.9077 24.1263 16.7436C24.0279 17.1134 24.0054 17.8807 24.0812 18.2762C24.2512 19.1624 24.7297 19.9502 25.4929 20.6007C26.2653 21.2584 27.1966 21.6682 28.3153 21.8434C28.6401 21.8946 29.0078 21.8997 32.1929 21.8997H35.712L35.7222 21.4418L35.7324 20.9839H32.4275L32.7625 20.7185C33.1885 20.3895 33.5492 19.9837 33.8259 19.5219C34.5369 18.3366 34.5523 16.9792 33.8669 15.7929C33.5995 15.3268 33.326 15.0081 32.8568 14.6147L32.4439 14.2695H35.7314V13.3383L32.2995 13.3434C30.4124 13.3465 28.7989 13.3536 28.7138 13.3598L28.7128 13.3608ZM18.3401 14.3484C19.8163 14.6076 20.9525 15.4876 21.4104 16.7272C21.5118 16.9997 21.5169 17.0509 21.5169 17.6267C21.5159 18.1973 21.5088 18.2557 21.4114 18.519C21.1996 19.1079 20.8239 19.624 20.3286 20.0065C19.5909 20.5966 18.8083 20.8896 17.8084 20.9511C17.3282 20.9866 16.8454 20.9476 16.3772 20.8353C15.0167 20.5095 13.9543 19.606 13.5825 18.4596C13.4902 18.1768 13.479 18.0815 13.479 17.6267C13.479 17.1739 13.4902 17.0755 13.5794 16.801C14.0127 15.4692 15.3353 14.4908 16.9622 14.3013C17.4219 14.2693 17.8836 14.2851 18.3401 14.3484ZM30.186 14.3791C31.9767 14.7551 33.243 16.1002 33.243 17.6267C33.243 19.3734 31.611 20.8251 29.5078 20.9511C28.262 21.0259 27.2417 20.7134 26.3586 19.9881C25.7777 19.5107 25.4765 19.0845 25.2655 18.4432C25.1876 18.2076 25.1763 18.1 25.1784 17.6103C25.1794 17.139 25.1927 17.0089 25.2624 16.801C25.5185 16.0408 26.0697 15.3677 26.8073 14.919C27.2867 14.627 28.01 14.3832 28.636 14.3023C29.014 14.2541 29.7629 14.292 30.186 14.3801V14.3791ZM46.9821 14.9272C47.5107 15.0051 47.8181 15.2264 47.9011 15.587C47.9305 15.6976 47.9341 15.8136 47.9116 15.9259C47.889 16.0382 47.8409 16.1437 47.771 16.2344C47.5456 16.5459 47.1563 16.6442 46.141 16.6463H45.6452V14.8801H46.1605C46.4432 14.8811 46.8131 14.9026 46.9821 14.9272ZM93.8556 15.8646V16.8481L93.2624 16.8276C92.3865 16.7938 92.0033 16.7047 91.7738 16.4793C91.6017 16.3102 91.5505 16.174 91.5485 15.8748C91.5444 15.5419 91.6437 15.3298 91.8896 15.1413C92.1508 14.9426 92.4428 14.8903 93.3208 14.8842L93.8556 14.8801V15.8646ZM83.9367 17.052C84.3024 17.8306 84.6026 18.478 84.6026 18.4893C84.6026 18.5006 83.9797 18.5098 83.2196 18.5098C82.4543 18.5098 81.8406 18.4975 81.8478 18.4821C82.4317 17.2282 83.2277 15.5952 83.2462 15.6116C83.2605 15.6249 83.5709 16.2723 83.9367 17.052ZM64.2536 18.0457C64.8447 18.1471 65.2576 18.3797 65.4399 18.7116C65.5178 18.854 65.5321 18.9319 65.5321 19.2167C65.5321 19.5015 65.5178 19.5793 65.442 19.7145C65.2022 20.1448 64.8324 20.2657 63.6563 20.2985L62.9853 20.319V19.1624C62.9853 18.5272 62.9986 17.9945 63.014 17.9811C63.058 17.9432 63.9155 17.9883 64.2536 18.0457ZM62.5376 22.7849C62.1463 22.8136 61.7037 22.8976 61.4394 22.9939C61.2017 23.0809 60.6403 23.3955 60.3616 23.5983L60.169 23.7387L60.3012 23.8626C60.5696 24.1167 61.3257 24.8072 61.3339 24.8072C61.34 24.8072 61.4291 24.7488 61.5326 24.6771C61.9731 24.3738 62.5018 24.2294 62.9361 24.2919C63.3777 24.3554 63.6912 24.5408 63.8541 24.8359C63.9801 25.0643 63.9708 25.5018 63.8356 25.7384C63.5867 26.1759 63.0908 26.3807 62.2835 26.3807H61.9352V27.8201L62.47 27.8427C63.6174 27.8908 64.0835 28.0496 64.355 28.485C64.5292 28.7626 64.5599 29.2359 64.4257 29.5341C64.1153 30.2205 63.0324 30.4868 62.1002 30.1057C61.7867 29.9787 61.3697 29.6877 61.174 29.4593L61.0993 29.3722L60.419 29.7892C60.1679 29.9445 59.9155 30.0978 59.6619 30.2491C59.5872 30.2901 59.5882 30.2942 59.6998 30.4161C59.9078 30.6436 60.5512 31.1732 60.795 31.3177C61.2755 31.6004 61.8143 31.752 62.554 31.8114C63.728 31.9047 64.7535 31.6537 65.4983 31.0912C66.154 30.5975 66.4541 29.9971 66.4521 29.1919C66.4511 28.6008 66.3117 28.1705 65.9942 27.775C65.7503 27.4708 65.3436 27.1778 64.8877 26.976L64.648 26.8704L64.8765 26.7311C65.443 26.3869 65.6479 26.1636 65.8046 25.722C65.8907 25.4813 65.9071 25.3696 65.9071 25.0479C65.9071 24.3585 65.7124 23.9435 65.1838 23.503C64.5128 22.9447 63.6307 22.705 62.5376 22.7849ZM9.95379 23.0297C9.5428 23.0784 9.136 23.1575 8.73672 23.2664C7.49609 23.6403 6.38148 24.4814 5.83748 25.4526C5.47482 26.099 5.35394 26.5559 5.35291 27.2792C5.35189 28.0609 5.49634 28.5659 5.92149 29.2513C6.64886 30.4284 8.05853 31.2838 9.62391 31.5C10.09 31.5646 10.4373 31.5697 13.9881 31.5605L17.0308 31.5523V30.6518H13.7505L14.1275 30.3393C14.9327 29.6724 15.4214 28.9102 15.6129 28.024C15.6949 27.6419 15.6939 26.9585 15.6099 26.557C15.4224 25.6605 14.8651 24.8 14.0732 24.1833L13.7566 23.9374H17.0288V23.0072L13.5589 23.0123C11.6503 23.0144 10.0276 23.0225 9.95277 23.0287L9.95379 23.0297ZM21.4432 23.0553C19.2559 23.3432 17.5953 24.6474 17.124 26.4453C17.0298 26.8059 17.0093 27.5507 17.0831 27.9236C17.4334 29.6857 18.9609 31.0533 21.0273 31.4539C21.5743 31.5594 22.0169 31.5697 25.5154 31.5594L28.7323 31.5492V30.6538H27.0993C26.2018 30.6538 25.4673 30.6466 25.4673 30.6384C25.4673 30.6292 25.6087 30.5104 25.7828 30.3731C26.5112 29.7973 27.0296 29.0413 27.2601 28.2115C27.3595 27.855 27.3984 27.0948 27.3369 26.7321C27.232 26.1196 26.9826 25.5409 26.6096 25.0438C26.3386 24.6918 26.0232 24.3764 25.6712 24.1054L25.4478 23.9415H27.09L28.7323 23.9394V23.0082L25.2429 23.0113C22.6182 23.0133 21.6768 23.0246 21.4422 23.0553H21.4432ZM33.3403 23.0297C31.7217 23.1977 30.3386 23.921 29.4934 25.0428C28.7046 26.0878 28.5141 27.438 28.9863 28.6182C29.6492 30.2747 31.4625 31.4426 33.5319 31.5461C33.7901 31.5584 35.4476 31.5646 37.2179 31.5594L40.4347 31.5492V30.6538H38.8028C37.9043 30.6538 37.1698 30.6497 37.1698 30.6436C37.1698 30.6384 37.3491 30.4837 37.5683 30.2983C38.6214 29.4101 39.1173 28.3518 39.0609 27.1194C39.0077 25.974 38.4903 25.0172 37.4863 24.2048L37.1585 23.9384H40.4358V23.0082L36.9464 23.0123C35.0266 23.0154 33.4038 23.0225 33.3403 23.0297ZM41.6016 27.312V31.6178H43.2643C45.4024 31.6178 45.7691 31.582 46.4443 31.3105C47.0559 31.0636 47.5394 30.6753 47.8058 30.2205C48.0127 29.8639 48.0619 29.6642 48.0844 29.1038C48.1019 28.6581 48.0937 28.5598 48.0178 28.2893C47.8621 27.732 47.4472 27.1778 46.937 26.8469C46.3428 26.4607 45.6155 26.3008 44.2744 26.2629L43.585 26.2424V24.5828H47.0456V23.0051H41.6016V27.312ZM53.0213 23.0461C51.6922 25.8887 50.3645 28.7319 49.0382 31.5758C49.0239 31.6076 49.2411 31.6168 50.0514 31.6168H51.083L51.5031 30.7337L51.9241 29.8496H54.0622L56.2013 29.8506L56.6049 30.7337L57.0086 31.6168H58.033C58.5965 31.6168 59.0575 31.6127 59.0575 31.6086C59.0575 31.6035 58.1611 29.6703 57.0639 27.312L55.0692 23.0225L54.055 23.0144C53.2662 23.0072 53.0367 23.0144 53.0213 23.0461ZM71.4679 23.1752C71.388 23.3494 67.5811 31.5041 67.5452 31.5768C67.5298 31.6096 67.7378 31.6158 68.5635 31.6086L69.6023 31.6004L70.0162 30.7255L70.4301 29.8506H74.7073L75.1109 30.7327L75.5145 31.6168H76.5421C77.5041 31.6168 77.5686 31.6127 77.5481 31.5605C77.5348 31.5297 76.6363 29.5955 75.5504 27.2638L73.5752 23.0225L72.561 23.0144L71.5447 23.0062L71.4679 23.1752ZM11.5263 24.048C13.4349 24.4568 14.7421 25.9894 14.5424 27.5835C14.4317 28.4604 14.0465 29.111 13.2802 29.7133C12.6979 30.166 12.0095 30.4622 11.2805 30.5739C10.8338 30.6487 9.91486 30.6251 9.46717 30.5257C8.94339 30.3943 8.44302 30.1828 7.98374 29.8988C6.08438 28.6417 5.9471 26.2906 7.68972 24.8963C8.30133 24.4087 8.98362 24.1167 9.81754 23.9876C10.2837 23.9159 11.0336 23.9425 11.5263 24.048ZM23.154 24.0306C24.6006 24.3257 25.748 25.2651 26.1332 26.4709C26.2479 26.8295 26.2735 27.4954 26.1885 27.8724C25.8771 29.2339 24.6436 30.286 23.0373 30.5595C22.505 30.6347 21.9652 30.6389 21.4319 30.5718C19.7569 30.3096 18.4435 29.1704 18.1946 27.7648C18.1311 27.3227 18.1626 26.8722 18.2868 26.4432C18.6894 25.177 19.9249 24.2345 21.5139 23.9845C21.898 23.9231 22.7443 23.9476 23.154 24.0306ZM34.8494 24.0316C35.5972 24.1935 36.2396 24.4927 36.7579 24.9209C38.3049 26.1994 38.3489 28.2555 36.8563 29.573C36.2918 30.0719 35.4733 30.4479 34.6865 30.5698C34.1489 30.6387 33.6045 30.6353 33.0678 30.5595C31.5721 30.3055 30.3489 29.3322 29.9678 28.0967C29.8448 27.6951 29.8448 26.8438 29.9678 26.4709C30.3724 25.2497 31.5239 24.3093 32.951 24.0337C33.412 23.9456 33.4499 23.9425 34.0206 23.9548C34.3853 23.963 34.6363 23.9855 34.8494 24.0316ZM54.7588 26.7598C55.1348 27.5599 55.4432 28.2217 55.4432 28.2289C55.4432 28.2371 54.8213 28.2432 54.0622 28.2432C53.3041 28.2432 52.6822 28.233 52.6822 28.2217C52.6822 28.1889 54.055 25.2876 54.0663 25.2958C54.0714 25.2999 54.3839 25.9587 54.7588 26.7598ZM73.2669 26.7557C73.6418 27.5548 73.9492 28.2156 73.9492 28.2248C73.9492 28.235 73.3283 28.2432 72.5692 28.2432C71.8101 28.2432 71.1892 28.234 71.1892 28.2227C71.1892 28.192 72.5641 25.2887 72.5753 25.2979C72.5794 25.302 72.8909 25.9576 73.2669 26.7557ZM44.8256 27.7802C45.4024 27.8693 45.8275 28.1019 46.0222 28.4307C46.1175 28.5936 46.1298 28.6479 46.1298 28.9501C46.1308 29.2503 46.1195 29.3066 46.0283 29.4644C45.9707 29.5629 45.9001 29.6532 45.8183 29.7328C45.5714 29.9449 45.0694 30.0401 44.1771 30.0412L43.585 30.0422V27.688L44.0603 27.7115C44.3226 27.7238 44.6668 27.7546 44.8256 27.7802ZM6.86912 36.357C6.1817 36.4943 5.60186 36.9717 5.44716 37.528C5.38877 37.738 5.39594 38.0965 5.46458 38.3127C5.55166 38.5873 5.70328 38.8004 5.97374 39.0247C6.54232 39.496 7.42746 39.6169 8.15995 39.3218C8.45602 39.202 8.84122 38.8977 8.99079 38.6651C9.39853 38.032 9.24486 37.2596 8.61071 36.7565C8.3679 36.5655 8.08581 36.4307 7.7847 36.3616C7.48358 36.2925 7.17091 36.2909 6.86912 36.357ZM16.915 36.3406C16.5616 36.4102 16.2291 36.5611 15.9438 36.7811C15.5361 37.1172 15.3753 37.486 15.406 38.0095C15.4214 38.2871 15.4398 38.3516 15.5658 38.5699C15.91 39.1692 16.6354 39.5236 17.4191 39.4755C18.1311 39.4304 18.7068 39.1118 19.0029 38.5975C19.3574 37.9808 19.2303 37.3098 18.6638 36.8098C18.2069 36.4062 17.5697 36.2351 16.915 36.3406ZM24.3004 36.3283C23.6058 36.4246 23.0198 36.8303 22.7791 37.3845C22.6633 37.6519 22.6633 38.1396 22.7791 38.408C23.2565 39.5031 24.8946 39.8381 25.8996 39.0462C26.3145 38.7194 26.4846 38.3855 26.4856 37.8958C26.4877 37.3087 26.1537 36.8272 25.5308 36.5189C25.1458 36.344 24.7203 36.2781 24.3004 36.3283ZM33.6702 36.3283C32.9756 36.4246 32.3906 36.8303 32.1499 37.3845C32.0331 37.6519 32.0331 38.1396 32.1499 38.408C32.6263 39.5031 34.2644 39.8381 35.2704 39.0462C35.6843 38.7194 35.8544 38.3855 35.8554 37.8958C35.8574 37.3087 35.5235 36.8272 34.9016 36.5189C34.5163 36.3438 34.0904 36.2779 33.6702 36.3283ZM37.053 36.3355C36.8696 36.3662 36.6668 36.4492 36.5069 36.5588L36.3758 36.65L36.5633 36.8313C36.6668 36.9307 36.7682 37.0127 36.7866 37.0127C36.8071 37.0127 36.8727 36.9819 36.9341 36.945C37.1595 36.8067 37.5652 36.8426 37.6738 37.0106C37.7343 37.1049 37.722 37.3098 37.6502 37.3948C37.5683 37.4901 37.3695 37.5587 37.1708 37.5587H37.0141V38.1047H37.2189C37.6892 38.1047 37.9084 38.243 37.9084 38.536C37.9084 38.6723 37.8889 38.7235 37.8121 38.7922C37.6953 38.8956 37.5611 38.9407 37.3634 38.9407C37.1595 38.9407 37.0458 38.8997 36.8614 38.7625C36.7754 38.6979 36.6903 38.6498 36.6729 38.6559C36.5807 38.6877 36.1986 38.9284 36.1976 38.9551C36.1976 38.9714 36.3 39.0677 36.4229 39.1671C36.7139 39.3997 36.9434 39.4704 37.4023 39.4683C37.8183 39.4663 38.0641 39.3843 38.3131 39.1651C38.4169 39.0801 38.4972 38.97 38.5464 38.8451C38.5955 38.7203 38.6118 38.585 38.5938 38.452C38.5569 38.1621 38.4043 37.9634 38.0918 37.8005L37.9852 37.7441L38.1563 37.611C38.251 37.5457 38.3256 37.4552 38.3715 37.3497C38.5866 36.7002 37.9248 36.1921 37.053 36.3355ZM64.775 36.3406C64.4216 36.4102 64.0891 36.5611 63.8039 36.7811C63.3961 37.1172 63.2353 37.486 63.266 38.0095C63.2824 38.2871 63.3008 38.3516 63.4258 38.5699C63.77 39.1692 64.4954 39.5236 65.2801 39.4755C65.9921 39.4304 66.5679 39.1118 66.8629 38.5975C67.2174 37.9808 67.0903 37.3098 66.5248 36.8098C66.0669 36.4062 65.4297 36.2351 64.7761 36.3406H64.775ZM74.2852 36.357C73.5578 36.5025 72.9657 37.0383 72.8499 37.6581C72.7597 38.1365 72.9626 38.659 73.3693 39.0012C73.7299 39.3034 74.0946 39.4427 74.6099 39.4755C75.3885 39.5236 76.0913 39.1886 76.4437 38.5996C76.5953 38.3465 76.6076 38.3086 76.624 37.9951C76.6384 37.7185 76.6281 37.6232 76.5595 37.4378C76.2624 36.6305 75.2717 36.1593 74.2852 36.357ZM89.6409 36.355C89.0611 36.4769 88.5632 36.7934 88.3368 37.1848C88.1711 37.4758 88.112 37.8155 88.1698 38.1453C88.2276 38.4752 88.3986 38.7746 88.6533 38.9919C89.0426 39.3321 89.4309 39.4632 90.065 39.4663C90.7033 39.4704 91.0731 39.3566 91.5608 39.0083L91.697 38.911L91.4573 38.7112L91.2165 38.5115L91.0598 38.6283C90.9461 38.7082 90.825 38.7772 90.6982 38.8342C90.5148 38.9141 90.4523 38.9243 90.1234 38.9243C89.8202 38.9243 89.7188 38.911 89.56 38.8506C89.1246 38.6846 88.8756 38.3742 88.849 37.9603C88.8265 37.614 88.9279 37.3856 89.2076 37.1551C89.6962 36.7504 90.5086 36.7514 91.0516 37.1571L91.2114 37.277L91.4286 37.1233C91.5485 37.0393 91.656 36.9492 91.6683 36.9215C91.6939 36.8672 91.486 36.7064 91.2165 36.5721C90.7566 36.3447 90.1152 36.2556 89.6409 36.355ZM9.91486 37.8968V39.4232H10.6146V36.9174H11.8593V39.4232H12.559V36.3703H9.91588L9.91486 37.8968ZM13.0251 36.6439V36.9174H13.6869V39.4232H14.3867V36.9174H15.0853V36.3713H13.0251V36.6439ZM19.8686 37.8958V39.4294L20.597 39.4161C21.4247 39.4007 21.5774 39.37 21.8263 39.1722C22.313 38.7881 22.273 38.1508 21.7444 37.8456L21.5426 37.7298L21.6419 37.653C21.7206 37.5955 21.7842 37.5198 21.8272 37.4324C21.8702 37.3449 21.8913 37.2484 21.8888 37.151C21.8913 37.0421 21.8657 36.9345 21.8143 36.8384C21.763 36.7424 21.6877 36.6613 21.5958 36.6029C21.352 36.4369 21.1615 36.398 20.4802 36.3795L19.8686 36.3621V37.8958ZM29.3551 37.8968V39.4232H30.0159V38.116L30.3571 38.0955C30.7361 38.073 30.9 38.0351 31.1111 37.9214C31.6848 37.6099 31.6458 36.7842 31.0445 36.5097C30.8334 36.4134 30.479 36.3713 29.8704 36.3713H29.3551V37.8968ZM39.3078 37.8968V39.4232H40.0075V38.074H41.2523V39.4232H41.952V36.3703H41.2512V37.528H40.0075V36.3713H39.3078V37.8968ZM42.8074 37.8988V39.4253L43.1055 39.4161L43.4047 39.4068L44.087 38.4602L44.7703 37.5126L44.7805 38.4674L44.7908 39.4232H45.4895V36.3703L45.1883 36.3713H44.8871L44.2355 37.2975C43.8769 37.8066 43.5594 38.2502 43.5276 38.2851C43.4764 38.3393 43.4702 38.2338 43.4692 37.3589L43.4682 36.3713H42.8074V37.8988ZM46.0734 36.7002C46.0755 37.4993 46.2168 37.7616 46.7618 37.9685C46.9288 38.032 47.0518 38.0494 47.4523 38.0648L47.939 38.0832V39.4232H48.6387V36.3703H47.939V37.528L47.5794 37.5259C46.8879 37.5229 46.811 37.4542 46.7813 36.8027L46.7608 36.3713H46.0724L46.0734 36.7002ZM49.4951 37.8968V39.4232H50.1938V38.074H51.4385V39.4232H52.1383V36.3703H51.4385V37.528H50.1938V36.3713H49.4941V37.8978L49.4951 37.8968ZM54.1073 36.3949C54.0724 36.442 52.7212 39.3659 52.7212 39.3946C52.7212 39.4099 52.8769 39.4232 53.0664 39.4232H53.4127L53.5643 39.1097L53.718 38.7963H55.226L55.3653 39.1016L55.5036 39.4068L55.8622 39.4171C56.0589 39.4212 56.2208 39.4191 56.2208 39.4109C56.2208 39.4007 54.9514 36.6582 54.8398 36.4277C54.8162 36.3795 54.7599 36.3713 54.4689 36.3713C54.2804 36.3713 54.1175 36.3816 54.1073 36.3949ZM57.6396 36.4031C57.0444 36.4615 56.733 36.7207 56.6961 37.1909C56.6859 37.3139 56.6982 37.4778 56.7238 37.5536C56.7832 37.7359 56.9901 37.9214 57.2329 38.0074L57.4276 38.0771L57.2124 38.4121L56.7822 39.0862L56.566 39.4232H57.3292L57.7083 38.7963C58.0484 38.2328 58.0955 38.1703 58.1836 38.1703H58.281V39.4232H58.9807V36.3703L58.4275 36.3754C58.1222 36.3785 57.7687 36.3908 57.6396 36.4031ZM60.8862 36.6439V36.9174H61.547V39.4232H62.2467V36.9174H62.9464V36.3713H60.8862V36.6439ZM67.7286 37.8937V39.4232H68.4283V38.116L68.7797 38.0955C69.2171 38.0689 69.4671 37.9859 69.6669 37.7984C70.1289 37.3651 69.9076 36.6141 69.2694 36.4482C69.1321 36.4123 68.8596 36.3908 68.3986 36.3795L67.7286 36.3632V37.8937ZM70.6053 37.8968V39.4232H71.305V36.9174H72.4329V36.3713H70.6053V37.8968ZM77.3319 37.9009V39.4304L78.0603 39.4171C78.7191 39.4048 78.8092 39.3966 78.9936 39.329C79.6298 39.0964 79.8173 38.3803 79.3501 37.9623C79.2693 37.8889 79.1773 37.8288 79.0776 37.7841L78.9598 37.7431L79.0961 37.6273C79.4239 37.3497 79.4382 36.9696 79.1299 36.6879C78.8656 36.4461 78.547 36.3724 77.7694 36.3713H77.3319V37.9009ZM80.6051 37.8783C80.2158 38.7082 79.8982 39.3946 79.8982 39.4048C79.8982 39.415 80.0591 39.4232 80.2568 39.4222H80.6174L81.0989 38.3701C81.3653 37.7923 81.6029 37.2841 81.6275 37.2432C81.6685 37.1756 81.7249 37.2821 82.1725 38.2635C82.4492 38.8659 82.6848 39.3741 82.6981 39.3925C82.7135 39.413 82.862 39.4222 83.0771 39.4161L83.4306 39.4068L82.7237 37.8906L82.0168 36.3724H81.6644L81.312 36.3713L80.6051 37.8783ZM84.6989 36.4031C84.2768 36.4441 84.0135 36.5824 83.8598 36.8447C83.7338 37.0598 83.7287 37.486 83.8496 37.6724C83.9592 37.8404 84.075 37.9265 84.3024 38.0105L84.4889 38.0781L84.0791 38.7307C83.8537 39.0893 83.6693 39.3925 83.6693 39.4038C83.6693 39.414 83.8353 39.4232 84.0381 39.4232H84.4079L84.787 38.7963C85.1107 38.2594 85.1773 38.1703 85.2531 38.1703H85.3412V39.4232H86.0409V36.3703L85.4867 36.3754C85.1824 36.3785 84.828 36.3908 84.6989 36.4031ZM91.989 36.6439V36.9174H92.6498V39.4232H93.3495V36.9174H94.0113V36.3713H91.989V36.6439ZM94.9661 37.7933C94.6034 38.575 94.2838 39.2614 94.2551 39.3187L94.2039 39.4232H94.9343L95.0818 39.1016L95.2294 38.7799L95.9854 38.7881L96.7425 38.7963L96.8818 39.1097L97.0212 39.4232H97.7434L97.6656 39.2542L96.9597 37.7277L96.3317 36.3713H95.6248L94.9661 37.7933ZM98.6183 37.8681L97.9053 39.3935C97.8981 39.4099 98.0487 39.4232 98.2577 39.4232H98.6234L99.1439 38.2994C99.4307 37.6806 99.6756 37.1858 99.6889 37.1991C99.7022 37.2114 99.9378 37.7175 100.213 38.323L100.713 39.4232H101.079C101.411 39.4232 101.443 39.4181 101.419 39.3669L100.709 37.8404L100.023 36.3713H99.6704L99.318 36.3724L98.6183 37.8681ZM101.865 37.9009V39.4304L102.613 39.4171C103.453 39.4017 103.561 39.3802 103.822 39.1722C104.046 38.994 104.129 38.8352 104.149 38.5514C104.175 38.2092 104.092 38.0146 103.828 37.7964C103.591 37.6007 103.379 37.5351 102.885 37.5054L102.565 37.486V36.3713H101.865V37.9009ZM104.78 37.8968V39.4232H105.48V38.074H106.725V39.4232H107.425V36.3703H106.725V37.528H105.48V36.3713H104.78V37.8968ZM108.28 37.9009V39.4304L109.028 39.4171C109.868 39.4017 109.977 39.3802 110.237 39.1722C110.461 38.994 110.545 38.8352 110.566 38.5514C110.59 38.2092 110.506 38.0146 110.243 37.7964C110.006 37.6007 109.794 37.5351 109.3 37.5054L108.98 37.486V36.3713H108.28V37.9009ZM111.118 37.8968V39.4232H111.779V36.3703H111.118V37.8968ZM112.478 36.4359C112.502 36.4717 112.756 36.7975 113.044 37.1602C113.332 37.5218 113.567 37.8333 113.567 37.8497C113.567 37.8671 113.313 38.2 113.004 38.5903C112.693 38.9796 112.422 39.3269 112.399 39.3607C112.36 39.4202 112.375 39.4222 112.745 39.4222H113.131L113.547 38.8926C113.776 38.6016 113.977 38.3701 113.993 38.3783C114.011 38.3875 114.206 38.6252 114.428 38.909L114.83 39.4232H115.21C115.419 39.4232 115.589 39.4161 115.589 39.4079C115.589 39.3986 115.329 39.0626 115.013 38.66C114.695 38.2584 114.423 37.9101 114.406 37.8876C114.388 37.8609 114.584 37.5843 114.944 37.1274C115.256 36.732 115.511 36.4 115.511 36.3898C115.511 36.3795 115.341 36.3713 115.132 36.3724H114.753L114.43 36.7893C113.928 37.4337 114.034 37.4245 113.586 36.8569L113.202 36.3713H112.819C112.448 36.3713 112.438 36.3734 112.478 36.4359ZM117.222 36.6439V36.9174H117.882V39.4232H118.582V36.9174H119.283V36.3713H117.222V36.6439ZM119.749 37.8937V39.4232H120.449V38.116L120.8 38.0955C121.238 38.0689 121.487 37.9859 121.687 37.7984C122.149 37.3651 121.928 36.6141 121.29 36.4482C121.152 36.4123 120.88 36.3908 120.42 36.3795L119.749 36.3632V37.8937ZM122.39 36.442C122.409 36.483 122.707 37.0147 123.05 37.6243L123.674 38.7327L123.539 38.8372C123.338 38.993 123.114 38.9755 122.851 38.784L122.717 38.6877L122.495 38.8731L122.272 39.0595L122.428 39.1753C122.837 39.4806 123.332 39.5585 123.738 39.3833C124.139 39.2112 124.219 39.0862 124.9 37.5925L125.456 36.3713H124.745L124.399 37.1981C124.208 37.653 124.041 38.0371 124.026 38.0505C124.012 38.0648 123.805 37.696 123.567 37.2309L123.136 36.3877L122.746 36.3775L122.355 36.3693L122.39 36.442ZM125.931 37.9009V39.4304L126.66 39.4171C127.314 39.4058 127.409 39.3966 127.583 39.3321C127.818 39.244 128.008 39.0985 128.118 38.9253C128.233 38.742 128.256 38.3619 128.166 38.1365C128.087 37.9419 127.852 37.7134 127.638 37.6222C127.479 37.5556 127.094 37.4962 126.815 37.4962H126.63V36.9174H127.836V36.3713H125.931V37.9009ZM7.68869 36.902C7.93969 36.9635 8.25215 37.1909 8.38841 37.4122C8.52568 37.6345 8.55334 37.991 8.45397 38.2553C8.39865 38.4039 8.33411 38.4848 8.14868 38.6385C7.85466 38.8833 7.62518 38.9561 7.23178 38.9335C6.75131 38.9059 6.34357 38.6621 6.1817 38.3066C6.06696 38.0546 6.08438 37.6489 6.22166 37.4153C6.48495 36.9666 7.08938 36.7545 7.68869 36.902ZM17.8002 36.945C18.0532 37.0536 18.2602 37.2247 18.38 37.4266C18.4743 37.5843 18.4876 37.6458 18.4876 37.8978C18.4876 38.1488 18.4743 38.2103 18.379 38.3691C17.9323 39.121 16.6661 39.1333 16.2174 38.3895C16.1129 38.2174 16.0975 38.158 16.0975 37.9326C16.0975 37.7892 16.1149 37.6192 16.1375 37.5536C16.2297 37.279 16.5934 36.9717 16.9273 36.8856C17.1353 36.8334 17.6127 36.8651 17.8002 36.945ZM25.1507 36.9655C25.9703 37.3343 26.0307 38.3414 25.2573 38.7727C25.0145 38.9079 24.8065 38.952 24.4951 38.9335C24.0648 38.9079 23.6898 38.6979 23.4972 38.3721C23.4112 38.2246 23.3917 38.1488 23.3897 37.9337C23.3866 37.6161 23.4696 37.3979 23.6663 37.2083C23.9408 36.942 24.2062 36.8498 24.6518 36.8641C24.8874 36.8723 24.9848 36.8918 25.1497 36.9666L25.1507 36.9655ZM34.5205 36.9655C35.3401 37.3343 35.4005 38.3414 34.627 38.7727C34.3842 38.9079 34.1763 38.952 33.8648 38.9335C33.4346 38.9079 33.0606 38.6979 32.868 38.3721C32.781 38.2246 32.7615 38.1488 32.7594 37.9337C32.7564 37.6161 32.8393 37.3979 33.036 37.2083C33.3106 36.942 33.5759 36.8498 34.0216 36.8641C34.2572 36.8723 34.3545 36.8908 34.5205 36.9655ZM65.6602 36.945C65.8991 37.0409 66.1019 37.2093 66.24 37.4266C66.3343 37.5843 66.3486 37.6458 66.3486 37.8978C66.3486 38.1488 66.3343 38.2103 66.239 38.3691C65.7923 39.121 64.5261 39.1333 64.0774 38.3895C63.9729 38.2174 63.9575 38.158 63.9575 37.9326C63.9575 37.7892 63.976 37.6192 63.9975 37.5536C64.0897 37.279 64.4544 36.9717 64.7884 36.8856C64.9963 36.8334 65.4727 36.8651 65.6602 36.945ZM75.239 36.945C75.4725 37.0373 75.7071 37.2319 75.8229 37.4255C75.8997 37.5536 75.912 37.6253 75.912 37.9132C75.912 38.2984 75.8547 38.4275 75.5822 38.6518C75.3199 38.869 75.1478 38.9243 74.7462 38.9243C74.4542 38.9243 74.3671 38.912 74.2217 38.8495C73.9883 38.7512 73.7884 38.5876 73.6459 38.3783C73.5568 38.239 73.5435 38.1795 73.5435 37.9132C73.5414 37.6591 73.5568 37.5792 73.6336 37.4388C73.7514 37.2227 74.0834 36.9676 74.3303 36.902C74.5946 36.8334 75.0115 36.8518 75.24 36.944L75.239 36.945ZM21.1369 37.026C21.2362 37.1202 21.2598 37.2923 21.1881 37.4009C21.1287 37.4931 20.9432 37.5597 20.7445 37.5597H20.5683V36.9092L20.807 36.9235C21.0078 36.9358 21.0611 36.9522 21.1379 37.026H21.1369ZM30.732 37.0116C30.8119 37.0731 30.8324 37.1192 30.8304 37.237C30.8283 37.4839 30.7023 37.5597 30.2905 37.5597H30.0159V36.9102L30.3233 36.9225C30.5855 36.9328 30.647 36.945 30.732 37.0116ZM58.2799 37.2708V37.6243H58.0269C57.7421 37.6243 57.53 37.5649 57.4675 37.4686C57.403 37.3682 57.4184 37.1356 57.4942 37.0588C57.6048 36.9461 57.7021 36.9194 57.9992 36.9184L58.281 36.9174V37.2708H58.2799ZM69.0061 36.9532C69.2417 37.0198 69.3196 37.2913 69.1516 37.4532C69.0655 37.5351 69.0307 37.5444 68.7428 37.5556L68.4283 37.5659V36.9174H68.6557C68.7807 36.9174 68.9375 36.9338 69.0061 36.9532ZM78.4947 36.9635C78.7129 37.0577 78.7437 37.318 78.5552 37.4655C78.4865 37.5167 78.3984 37.5423 78.2458 37.5536L78.0306 37.5679V36.9174H78.2089C78.3052 36.9174 78.4343 36.9379 78.4947 36.9635ZM85.3412 37.2749V37.6325L85.04 37.6181C84.6251 37.5976 84.4858 37.5106 84.4858 37.2698C84.4858 37.0239 84.6579 36.9215 85.0779 36.9184L85.3412 36.9174V37.2749ZM121.027 36.9532C121.261 37.0198 121.34 37.2913 121.172 37.4532C121.086 37.5351 121.051 37.5444 120.763 37.5556L120.449 37.5659V36.9174H120.676C120.801 36.9174 120.959 36.9338 121.027 36.9532ZM54.7281 37.7216L54.9658 38.2338H53.9639L54.0161 38.1304C54.0448 38.073 54.1544 37.8415 54.2589 37.6161C54.3644 37.3907 54.4597 37.2063 54.4699 37.2063C54.4812 37.2063 54.597 37.4388 54.7281 37.7216ZM96.2426 37.7226C96.3624 37.9808 96.4608 38.201 96.4608 38.2123C96.4608 38.2246 96.2395 38.2349 95.9701 38.2349C95.5931 38.2349 95.4845 38.2246 95.4988 38.1939L95.7426 37.6786C95.8656 37.4173 95.9803 37.2155 95.9967 37.2288C96.0121 37.2432 96.1237 37.4645 96.2426 37.7226ZM27.2161 38.2984V38.5555H28.4608V38.0412H27.215L27.2161 38.2984ZM103.113 38.0781C103.436 38.1672 103.578 38.4305 103.433 38.6744C103.345 38.8239 103.198 38.8731 102.827 38.8751L102.565 38.8772V38.0412H102.773C102.886 38.0412 103.039 38.0586 103.113 38.0781ZM109.528 38.0781C109.852 38.1672 109.993 38.4305 109.849 38.6744C109.76 38.8239 109.613 38.8731 109.242 38.8751L108.98 38.8772V38.0412H109.188C109.301 38.0412 109.455 38.0586 109.528 38.0781ZM127.188 38.0884C127.387 38.1468 127.478 38.2215 127.531 38.368C127.548 38.4079 127.557 38.4508 127.556 38.4942C127.556 38.5375 127.547 38.5803 127.53 38.6201C127.463 38.8034 127.346 38.8536 126.957 38.871L126.63 38.8854V38.0412L126.834 38.0433C126.947 38.0433 127.106 38.0638 127.188 38.0884ZM21.2475 38.1508C21.3807 38.2226 21.5006 38.3885 21.5006 38.5012C21.5006 38.744 21.2608 38.8772 20.8203 38.8772H20.5683V38.0658L20.8572 38.0812C21.0375 38.0904 21.185 38.117 21.2475 38.1508ZM78.6822 38.1498C78.8359 38.2154 78.926 38.3506 78.926 38.5186C78.926 38.7614 78.7109 38.8772 78.255 38.8772H78.0316V38.0648L78.2939 38.0812C78.4384 38.0894 78.6125 38.1201 78.6822 38.1498Z" fill="black" stroke="black" stroke-width="0.4"/>
</mask>
<g mask="url(#mask2_1_145)">
<path d="M128.288 0.589844H29.9387V12.8834H128.288V0.589844Z" fill="white" stroke="#B71E23" stroke-width="0.4"/>
<path d="M97.5519 9.81009H36.0839V22.1037H97.5519V9.81009ZM78.4061 22.1037H41.1222V32.3484H78.4061V22.1037Z" fill="white" stroke="#B71E23" stroke-width="0.4"/>
</g>
</g>
</g>
</svg>
